<?xml version="1.0" encoding="utf-8"?>
<!-- Generator: Adobe Illustrator 26.0.1, SVG Export Plug-In . SVG Version: 6.00 Build 0)  -->
<svg version="1.1" id="Слой_1" xmlns="http://www.w3.org/2000/svg" xmlns:xlink="http://www.w3.org/1999/xlink" x="0px" y="0px"
	 viewBox="0 0 1009.1 1027.3" style="enable-background:new 0 0 1009.1 1027.3;" xml:space="preserve">
<style type="text/css">
	.st0{fill:#EFECE5;}
	.st1{fill:#CA8B0C;}
	.st2{fill:#714014;}
	.st3{clip-path:url(#SVGID_00000160160206518341542040000012662834273259763338_);}
</style>
<image style="overflow:visible;enable-background:new    ;" width="1010" height="1028" xlink:href="about.png"  transform="matrix(0.9193 0 0 0.9193 -1586.6338 134.2672)">
</image>
<g>
	<g>
		<path class="st0" d="M253.1,560.4c-1.2-0.9-2.2-1.7-3.1-2.4c0.7,0.6,1.5,1.3,2.5,2.2c-4.9,2.3-8.9,4.3-13.1,6.1
			c-28.8,13-56.4,28.1-81.5,47.5c-6.3,4.9-12.3,9.9-18.1,15.3c23.6-21.8,51-38.5,79.9-52.8C230.6,570.9,241.5,565.9,253.1,560.4z"/>
		<path class="st0" d="M165,486.5c26.1,24.4,53.3,47.6,82,69.1c-20.3-16.6-41-32.7-60.7-50C179.1,499.3,172,493,165,486.5z"/>
		<path class="st0" d="M330.3,950.7c-3.2,2.4-6.4,4.7-9.6,7c7.4-4.9,14.6-10.3,21.6-15.9c17.2-13.7,34.4-27.5,52.4-40.2
			c3.8-2.7,7.5-5.3,11.3-8c-9.5,6.5-18.9,13.1-28.3,19.8C361.4,925,346.3,938.5,330.3,950.7z"/>
		<path class="st0" d="M135.5,633.2c1.1-1,2.1-2.1,3.2-3.1C137.6,631.2,136.5,632.2,135.5,633.2z"/>
		<path class="st0" d="M983.2,325.6c-6.2-16.4-16.3-30.4-27.6-43.4c-34.1-39.1-76.2-67.7-122.2-90.7c-45.1-22.7-92.8-37.3-143-43.5
			c-12.1-1.5-24.4-1.6-36.7-2.3c-1.3-0.1-2.7,0-4,0c-10.8-0.4-10.8-0.4-14.2-10.5c-5.1-15-12.4-28.2-23-38.5
			c12,12.1,20.4,28.2,24.5,46.8c-1.8,0.1-3.6,0.4-5.3,0.4c-16.6,0.4-33.3,0.2-49.9,1.2c-35.3,2.2-70.8,3.7-105.2,12.9
			c-8.7,2.3-17.2,5.2-25.6,8.3c-2.9,1.1-24.7,12.3-30.9,17.3c-24.2,19.3-32.2,45.1-29.8,75c2.7,34,14.9,65.1,29.2,95.5
			c3.5,7.4,7.2,14.6,11,21.9c2.6,5,16.8,36.1,17.5,37.8c7.4,16.7,14.8,33.5,22.5,50c17.9,37.9,35.8,75.9,54.1,113.6
			c7.7,15.8,16.7,31.1,25.1,46.6c13.5,24.8,21.4,27.9,30.5,46.8c6.8,14.3,14.8,30.9,14,50.9c-0.3,8.6-2.7,28.7-28.1,58.6
			c-0.2,0.3-0.5,0.5-0.7,0.8l0,0c3.1-2.7,5.6-2.7,9.2-0.3c11.1,7.6,23.5,11.4,37,11.3c8.1,0,14.8-3.1,19.7-9.8
			c1-1.3,2.1-2.5,3.1-3.9c6.5-8.3,14.6-10.4,24.2-6.1c3.6,1.6,7.1,3.5,10.8,5c10.3,4.2,18.6,2.4,23.2-7.4c4.2-9,9.8-10.3,18.7-10
			c15.2,0.5,30-3.7,43.8-10c23.3-10.5,45.5-23.3,65.7-39.1c40.5-31.6,67.5-71.8,76.5-122.9c2.6-14.6,5-29.7,4.5-44.4
			c-1.1-32,9.5-59.1,28-84.6c15.4-21.3,29.6-43.6,43.5-66c4.9-7.9,7.3-17.4,10.7-26.2c1.1-2.9,1.9-6,2.8-9c0-7.3,0-14.6,0-21.9
			C985.7,332.4,984.5,329,983.2,325.6z"/>
	</g>
	<g>
		<path class="st1" d="M420.1,183.5c6.2-5,28.1-16.3,30.9-17.3c8.4-3.1,16.9-6,25.6-8.3c34.5-9.1,69.9-10.7,105.2-12.9
			c16.6-1,33.3-0.9,49.9-1.2c1.8,0,3.5-0.3,5.3-0.4c-4.1-18.5-12.4-34.6-24.5-46.8c-6.5-6.3-14.2-11.4-23.3-15.1
			C575.7,76,561,73,546.5,70.3c-34.9-6.4-69.8-12.5-104.9-17.6c-24.2-3.5-48.7-5.3-73.1-7.8c-7.2-0.7-14.4-1.3-21.7-1.9
			c-21.9,0-43.8,0-65.7,0c-5.7,0.6-11.5,1.4-17.2,1.8c-41,2.9-78.3,17.3-114.1,36.8c-22.2,12.1-43.4,25.7-62.3,42.5
			C56,152.2,31.7,185.2,24.4,228.3c-4.3,25.4-2.1,50.6,5.5,75.3c11.3,37.1,31,69.7,55.5,99.3c18.1,21.8,37.3,42.7,57.5,62.6
			c7.3,7.2,14.7,14.2,22.1,21.2c7,6.4,14.1,12.7,21.3,19c19.7,17.3,40.4,33.4,60.7,50c0.2,0.2,0.4,0.3,0.6,0.5
			c0.8,0.6,1.5,1.2,2.4,1.9c0.7,0.6,1.5,1.2,2.5,1.9c19.7-8.8,36.1-14.9,47.4-18.9c25.2-8.9,37.7-11.4,72-24
			c26.8-9.8,36.1-14.4,45.4-22.3c5.2-4.3,9.3-8.7,17.9-14c5.7-3.5,16.5-10,30.1-11.8c2.5-0.3,5-0.5,7.4-0.5
			c-0.8-1.6-1.5-3.2-2.3-4.8c-7.8-16.5-15.1-33.3-22.5-50c-0.8-1.7-15-32.8-17.5-37.8c-3.7-7.3-7.5-14.5-11-21.9
			c-14.3-30.4-26.5-61.5-29.2-95.5C387.9,228.6,395.9,202.8,420.1,183.5z"/>
		<path class="st2" d="M580.2,670.6c-9-18.9-17-22-30.5-46.8c-8-14.7-16.4-29.2-23.9-44.1c-0.4-0.8-0.8-1.6-1.2-2.4
			c-17.6-36.1-34.7-72.4-51.9-108.7c-2.4,0-4.9,0.1-7.4,0.5c-13.6,1.8-24.4,8.4-30.1,11.8c-8.6,5.3-12.8,9.6-17.9,14
			c-9.4,7.8-18.6,12.4-45.4,22.3c-34.3,12.6-46.8,15.1-72,24c-11.3,4-27.7,10.1-47.4,18.9c-1.7,0.7-3.4,1.5-5.1,2.3l-46,19.9
			c-7.3,4.3-19.3,11.4-24,17.1c-0.5,0.6-0.9,1.2-1.3,1.8c-12.8,8.4-24.9,17.6-36.2,28c-0.4,0.4-0.8,0.7-1.2,1.1
			c-1.1,1-2.1,2-3.2,3.1c-13.9,13.5-25.9,28.7-35.1,46.3c-11.6,22-17.4,45.6-17.4,71c0.1,37.8,11.7,72.4,26.4,106.4
			c11,25.5,23.7,50.1,40.6,72.3c14.4,18.9,30.9,35.8,52.9,45.7c8.8,4,18.5,6.1,27.8,9.1c8.3,0,16.6,0,24.9,0
			c6.5-1.4,13-2.5,19.3-4.3c16.7-4.9,31.7-12.8,45.9-22.3c3.3-2.2,6.5-4.6,9.6-7c16-12.2,31-25.7,47.4-37.4
			c9.4-6.7,18.8-13.2,28.3-19.8c49.6-35.1,99.4-69.7,149.1-104.6c3.5-2.5,7-5.1,10.2-7.9c0.2-0.3,0.5-0.5,0.7-0.8
			c25.4-30,27.7-50,28.1-58.6C595,701.5,587,684.9,580.2,670.6z"/>
	</g>
</g>
<g>
	<g>
		<defs>
			<path id="SVGID_1_" d="M983.2,325.6c-6.2-16.4-16.3-30.4-27.6-43.4c-34.1-39.1-76.2-67.7-122.2-90.7
				c-45.1-22.7-92.8-37.3-143-43.5c-12.1-1.5-24.4-1.6-36.7-2.3c-1.3-0.1-2.7,0-4,0c-10.8-0.4-10.8-0.4-14.2-10.5
				c-5.1-15-12.4-28.2-23-38.5c12,12.1,20.4,28.2,24.5,46.8c-1.8,0.1-3.6,0.4-5.3,0.4c-16.6,0.4-33.3,0.2-49.9,1.2
				c-35.3,2.2-70.8,3.7-105.2,12.9c-8.7,2.3-17.2,5.2-25.6,8.3c-2.9,1.1-24.7,12.3-30.9,17.3c-24.2,19.3-32.2,45.1-29.8,75
				c2.7,34,14.9,65.1,29.2,95.5c3.5,7.4,7.2,14.6,11,21.9c2.6,5,16.8,36.1,17.5,37.8c7.4,16.7,14.8,33.5,22.5,50
				c17.9,37.9,35.8,75.9,54.1,113.6c7.7,15.8,16.7,31.1,25.1,46.6c13.5,24.8,21.4,27.9,30.5,46.8c6.8,14.3,14.8,30.9,14,50.9
				c-0.3,8.6-2.7,28.7-28.1,58.6c-0.2,0.3-0.5,0.5-0.7,0.8l0,0c3.1-2.7,5.6-2.7,9.2-0.3c11.1,7.6,23.5,11.4,37,11.3
				c8.1,0,14.8-3.1,19.7-9.8c1-1.3,2.1-2.5,3.1-3.9c6.5-8.3,14.6-10.4,24.2-6.1c3.6,1.6,7.1,3.5,10.8,5c10.3,4.2,18.6,2.4,23.2-7.4
				c4.2-9,9.8-10.3,18.7-10c15.2,0.5,30-3.7,43.8-10c23.3-10.5,45.5-23.3,65.7-39.1c40.5-31.6,67.5-71.8,76.5-122.9
				c2.6-14.6,5-29.7,4.5-44.4c-1.1-32,9.5-59.1,28-84.6c15.4-21.3,29.6-43.6,43.5-66c4.9-7.9,7.3-17.4,10.7-26.2
				c1.1-2.9,1.9-6,2.8-9c0-7.3,0-14.6,0-21.9C985.7,332.4,984.5,329,983.2,325.6z"/>
		</defs>
		<clipPath id="SVGID_00000088829937976894375920000003021630241500072093_">
			<use xlink:href="#SVGID_1_"  style="overflow:visible;"/>
		</clipPath>
		<g style="clip-path:url(#SVGID_00000088829937976894375920000003021630241500072093_);">
			
				<image style="overflow:visible;enable-background:new    ;" width="4272" height="2848" xlink:href="oleg-archaeo.JPG"  transform="matrix(0.2521 0 0 0.2521 176.294 82.1351)">
			</image>
		</g>
	</g>
</g>
</svg>
