<?xml version="1.0" encoding="utf-8"?>
<!-- Generator: Adobe Illustrator 26.0.1, SVG Export Plug-In . SVG Version: 6.00 Build 0)  -->
<svg version="1.1" id="Слой_1" xmlns="http://www.w3.org/2000/svg" xmlns:xlink="http://www.w3.org/1999/xlink" x="0px" y="0px"
	 viewBox="0 0 776.6 841.9" style="enable-background:new 0 0 776.6 841.9;" xml:space="preserve">
<style type="text/css">
	.st0{clip-path:url(#SVGID_00000046322620879674681260000005368841191996469408_);}
	.st1{fill:#713F13;}
	.st2{clip-path:url(#SVGID_00000080174757406050064690000014441184656760915584_);}
	.st3{fill:#CA8B0C;}
	.st4{clip-path:url(#SVGID_00000087406420110239105220000000723916201469462421_);}
	.st5{fill:#FFECD9;}
</style>
<g>
	<g>
		<defs>
			<path id="SVGID_1_" d="M11.6,433.9c0-17,0-34,0-51c0.3-1.2,0.8-2.4,0.9-3.7c0.2-1.8-0.1-3.7,0.1-5.5c1.2-8.5,2.4-17,3.9-25.5
				c2.2-12.2,4.4-24.5,7-36.6c2-9.1,4.4-18.1,7.1-27c3.8-12.6,7.9-25.1,12.3-37.4c3.6-10.2,7.8-20.1,12.1-30.1
				c4.5-10.5,9.1-21.1,14.2-31.4c7.7-15.5,15.8-30.8,24-46c4.2-7.9,8.8-15.7,13.6-23.2c10.7-16.7,22.6-32.5,36.9-46.3
				c2.3-2.2,4.9-4,7.1-6.2c8.4-8.4,17.6-15.6,27.7-21.9c14.4-9,29.8-15.3,46.5-18.4c2.9-0.5,5.7-1.3,8.6-1.9c10.3,0,20.7,0,31,0
				c2.2,0.4,4.5,0.7,6.7,1.1c18.7,3.4,36.7,9.2,54,17.2c16.9,7.9,33,17.2,48.6,27.4c9.6,6.3,19.1,12.7,29.8,17.2
				c8.4,3.5,16.8,7.1,25.4,10.3c21.1,7.7,42.2,15.3,63.4,22.8c15.2,5.4,30.5,10.6,45.7,16c4.1,1.4,8,3.2,12.1,4.7
				c5.8,2,11.7,3.7,17.5,5.9c14.2,5.6,28.4,11.2,42.5,17.2c11.8,5,23.5,10.2,35.1,15.6c6.5,3,12.8,6.5,19,10
				c9,5.1,17.9,10.2,26.7,15.6c11.5,7.1,22.3,15.1,32.2,24.3c6.7,6.2,13,12.9,18.8,20c5.1,6.3,9.3,13.3,12.6,20.9
				c7.3,17,10.2,35.1,10.9,53.3c0.7,20.6,1,41.2-1.6,61.8c-1.3,10.2-2.6,20.3-4,30.5c-2.2,16.5-6.2,32.6-9.9,48.7
				c-2.9,12.6-6.3,25.1-10.1,37.5c-4.6,14.9-9.8,29.7-14.8,44.5c-1.9,5.7-4.3,11.2-6.5,16.7c-2.1,5.4-5.1,10.5-7,16
				c-2.4,6.9-5.7,13.5-8.9,20c-4.2,8.7-8.4,17.4-13,25.9c-4.5,8.3-9.3,16.5-14.1,24.7c-2.5,4.3-5.2,8.5-8,12.6
				c-7.1,10.6-14.1,21.3-21.5,31.7c-4.3,6.1-9.1,11.8-13.8,17.6c-5.4,6.7-10.8,13.5-16.7,19.8c-10.4,11.2-21.6,21.7-33.4,31.4
				c-11.3,9.2-23,18-35.5,25.6c-10.4,6.4-21.1,12.2-32.2,16.9c-11.6,4.9-23.4,9.3-36,11.7c-8.6,1.7-17.2,3.6-26,3.9
				c-0.9,0-1.8,0.6-2.7,0.9c-9.7,0-19.3,0-29,0c-0.9-0.3-1.8-0.8-2.7-1c-8.5-1.3-17.1-2-25.5-4c-10.5-2.5-20.8-5.8-31-9.3
				c-16.6-5.7-32.3-13.3-47.4-22.1s-29.9-18-43.7-28.7c-7.7-6-15.6-11.8-23.2-18c-5.9-4.8-11.5-10-17.3-15.1
				c-5.8-5.2-11.7-10.4-17.5-15.6c-1.1-1-2.1-2.1-3.2-3.2c-7.5-6.8-15.2-13.4-22.4-20.5c-10.5-10.4-20.7-21.2-31-31.9
				c-6.8-7.1-13.7-14-20.2-21.4c-2.5-2.8-3.7-6.7-7.5-8.5c-0.8-0.4-1.1-1.6-1.7-2.4c-0.6-0.8-1.2-1.5-2-2.2c-1.9-1.6-4-2.9-5.8-4.6
				c-7-7.1-13.7-14.5-20.7-21.5c-6.8-6.8-13.9-13.3-20.9-20c-0.4-0.3-0.8-0.6-1.2-0.9c-10-7.1-18.3-15.9-25.8-25.5
				c-9.1-11.6-16-24.4-21.7-37.9c-6.6-15.7-10.2-32.2-13.6-48.8c-1.4-6.8-1.5-13.8-2.2-20.7C12.5,435.3,11.9,434.6,11.6,433.9z"/>
		</defs>
		<clipPath id="SVGID_00000156569192313699635550000005184739391901959318_">
			<use xlink:href="#SVGID_1_"  style="overflow:visible;"/>
		</clipPath>
		<g style="clip-path:url(#SVGID_00000156569192313699635550000005184739391901959318_);">
			<path class="st1" d="M11.6,433.9c0-17,0-34,0-51c0.3-1.2,0.8-2.4,0.9-3.7c0.2-1.8-0.1-3.7,0.1-5.5c1.2-8.5,2.4-17,3.9-25.5
				c2.2-12.2,4.4-24.5,7-36.6c2-9.1,4.4-18.1,7.1-27c3.8-12.6,7.9-25.1,12.3-37.4c3.6-10.2,7.8-20.1,12.1-30.1
				c4.5-10.5,9.1-21.1,14.2-31.4c7.7-15.5,15.8-30.8,24-46c4.2-7.9,8.8-15.7,13.6-23.2c10.7-16.7,22.6-32.5,36.9-46.3
				c2.3-2.2,4.9-4,7.1-6.2c8.4-8.4,17.6-15.6,27.7-21.9c14.4-9,29.8-15.3,46.5-18.4c2.9-0.5,5.7-1.3,8.6-1.9c10.3,0,20.7,0,31,0
				c2.2,0.4,4.5,0.7,6.7,1.1c18.7,3.4,36.7,9.2,54,17.2c16.9,7.9,33,17.2,48.6,27.4c9.6,6.3,19.1,12.7,29.8,17.2
				c8.4,3.5,16.8,7.1,25.4,10.3c21.1,7.7,42.2,15.3,63.4,22.8c15.2,5.4,30.5,10.6,45.7,16c4.1,1.4,8,3.2,12.1,4.7
				c5.8,2,11.7,3.7,17.5,5.9c14.2,5.6,28.4,11.2,42.5,17.2c11.8,5,23.5,10.2,35.1,15.6c6.5,3,12.8,6.5,19,10
				c9,5.1,17.9,10.2,26.7,15.6c11.5,7.1,22.3,15.1,32.2,24.3c6.7,6.2,13,12.9,18.8,20c5.1,6.3,9.3,13.3,12.6,20.9
				c7.3,17,10.2,35.1,10.9,53.3c0.7,20.6,1,41.2-1.6,61.8c-1.3,10.2-2.6,20.3-4,30.5c-2.2,16.5-6.2,32.6-9.9,48.7
				c-2.9,12.6-6.3,25.1-10.1,37.5c-4.6,14.9-9.8,29.7-14.8,44.5c-1.9,5.7-4.3,11.2-6.5,16.7c-2.1,5.4-5.1,10.5-7,16
				c-2.4,6.9-5.7,13.5-8.9,20c-4.2,8.7-8.4,17.4-13,25.9c-4.5,8.3-9.3,16.5-14.1,24.7c-2.5,4.3-5.2,8.5-8,12.6
				c-7.1,10.6-14.1,21.3-21.5,31.7c-4.3,6.1-9.1,11.8-13.8,17.6c-5.4,6.7-10.8,13.5-16.7,19.8c-10.4,11.2-21.6,21.7-33.4,31.4
				c-11.3,9.2-23,18-35.5,25.6c-10.4,6.4-21.1,12.2-32.2,16.9c-11.6,4.9-23.4,9.3-36,11.7c-8.6,1.7-17.2,3.6-26,3.9
				c-0.9,0-1.8,0.6-2.7,0.9c-9.7,0-19.3,0-29,0c-0.9-0.3-1.8-0.8-2.7-1c-8.5-1.3-17.1-2-25.5-4c-10.5-2.5-20.8-5.8-31-9.3
				c-16.6-5.7-32.3-13.3-47.4-22.1s-29.9-18-43.7-28.7c-7.7-6-15.6-11.8-23.2-18c-5.9-4.8-11.5-10-17.3-15.1
				c-5.8-5.2-11.7-10.4-17.5-15.6c-1.1-1-2.1-2.1-3.2-3.2c-7.5-6.8-15.2-13.4-22.4-20.5c-10.5-10.4-20.7-21.2-31-31.9
				c-6.8-7.1-13.7-14-20.2-21.4c-2.5-2.8-3.7-6.7-7.5-8.5c-0.8-0.4-1.1-1.6-1.7-2.4c-0.6-0.8-1.2-1.5-2-2.2c-1.9-1.6-4-2.9-5.8-4.6
				c-7-7.1-13.7-14.5-20.7-21.5c-6.8-6.8-13.9-13.3-20.9-20c-0.4-0.3-0.8-0.6-1.2-0.9c-10-7.1-18.3-15.9-25.8-25.5
				c-9.1-11.6-16-24.4-21.7-37.9c-6.6-15.7-10.2-32.2-13.6-48.8c-1.4-6.8-1.5-13.8-2.2-20.7C12.5,435.3,11.9,434.6,11.6,433.9z"/>
		</g>
	</g>
	<g>
		<defs>
			<path id="SVGID_00000178899636200008191440000015346898186981248407_" d="M11.6,433.9c0-17,0-34,0-51c0.3-1.2,0.8-2.4,0.9-3.7
				c0.2-1.8-0.1-3.7,0.1-5.5c1.2-8.5,2.4-17,3.9-25.5c2.2-12.2,4.4-24.5,7-36.6c2-9.1,4.4-18.1,7.1-27c3.8-12.6,7.9-25.1,12.3-37.4
				c3.6-10.2,7.8-20.1,12.1-30.1c4.5-10.5,9.1-21.1,14.2-31.4c7.7-15.5,15.8-30.8,24-46c4.2-7.9,8.8-15.7,13.6-23.2
				c10.7-16.7,22.6-32.5,36.9-46.3c2.3-2.2,4.9-4,7.1-6.2c8.4-8.4,17.6-15.6,27.7-21.9c14.4-9,29.8-15.3,46.5-18.4
				c2.9-0.5,5.7-1.3,8.6-1.9c10.3,0,20.7,0,31,0c2.2,0.4,4.5,0.7,6.7,1.1c18.7,3.4,36.7,9.2,54,17.2c16.9,7.9,33,17.2,48.6,27.4
				c9.6,6.3,19.1,12.7,29.8,17.2c8.4,3.5,16.8,7.1,25.4,10.3c21.1,7.7,42.2,15.3,63.4,22.8c15.2,5.4,30.5,10.6,45.7,16
				c4.1,1.4,8,3.2,12.1,4.7c5.8,2,11.7,3.7,17.5,5.9c14.2,5.6,28.4,11.2,42.5,17.2c11.8,5,23.5,10.2,35.1,15.6c6.5,3,12.8,6.5,19,10
				c9,5.1,17.9,10.2,26.7,15.6c11.5,7.1,22.3,15.1,32.2,24.3c6.7,6.2,13,12.9,18.8,20c5.1,6.3,9.3,13.3,12.6,20.9
				c7.3,17,10.2,35.1,10.9,53.3c0.7,20.6,1,41.2-1.6,61.8c-1.3,10.2-2.6,20.3-4,30.5c-2.2,16.5-6.2,32.6-9.9,48.7
				c-2.9,12.6-6.3,25.1-10.1,37.5c-4.6,14.9-9.8,29.7-14.8,44.5c-1.9,5.7-4.3,11.2-6.5,16.7c-2.1,5.4-5.1,10.5-7,16
				c-2.4,6.9-5.7,13.5-8.9,20c-4.2,8.7-8.4,17.4-13,25.9c-4.5,8.3-9.3,16.5-14.1,24.7c-2.5,4.3-5.2,8.5-8,12.6
				c-7.1,10.6-14.1,21.3-21.5,31.7c-4.3,6.1-9.1,11.8-13.8,17.6c-5.4,6.7-10.8,13.5-16.7,19.8c-10.4,11.2-21.6,21.7-33.4,31.4
				c-11.3,9.2-23,18-35.5,25.6c-10.4,6.4-21.1,12.2-32.2,16.9c-11.6,4.9-23.4,9.3-36,11.7c-8.6,1.7-17.2,3.6-26,3.9
				c-0.9,0-1.8,0.6-2.7,0.9c-9.7,0-19.3,0-29,0c-0.9-0.3-1.8-0.8-2.7-1c-8.5-1.3-17.1-2-25.5-4c-10.5-2.5-20.8-5.8-31-9.3
				c-16.6-5.7-32.3-13.3-47.4-22.1s-29.9-18-43.7-28.7c-7.7-6-15.6-11.8-23.2-18c-5.9-4.8-11.5-10-17.3-15.1
				c-5.8-5.2-11.7-10.4-17.5-15.6c-1.1-1-2.1-2.1-3.2-3.2c-7.5-6.8-15.2-13.4-22.4-20.5c-10.5-10.4-20.7-21.2-31-31.9
				c-6.8-7.1-13.7-14-20.2-21.4c-2.5-2.8-3.7-6.7-7.5-8.5c-0.8-0.4-1.1-1.6-1.7-2.4c-0.6-0.8-1.2-1.5-2-2.2c-1.9-1.6-4-2.9-5.8-4.6
				c-7-7.1-13.7-14.5-20.7-21.5c-6.8-6.8-13.9-13.3-20.9-20c-0.4-0.3-0.8-0.6-1.2-0.9c-10-7.1-18.3-15.9-25.8-25.5
				c-9.1-11.6-16-24.4-21.7-37.9c-6.6-15.7-10.2-32.2-13.6-48.8c-1.4-6.8-1.5-13.8-2.2-20.7C12.5,435.3,11.9,434.6,11.6,433.9z"/>
		</defs>
		<clipPath id="SVGID_00000166661559917034430990000002068188777838114448_">
			<use xlink:href="#SVGID_00000178899636200008191440000015346898186981248407_"  style="overflow:visible;"/>
		</clipPath>
		<g style="clip-path:url(#SVGID_00000166661559917034430990000002068188777838114448_);">
			<g>
				<path class="st3" d="M611.9,643.7L450.8,322.4c-2.4-4.6-9.1-4.6-11.5,0l-22,43.8c-0.8,1.9-0.8,4.3,0,5.6l94,186.9
					c2.4,4.3-0.8,9.4-5.6,9.4h-224c-4.6,0-8.1-5.4-5.6-9.4l94-186.9c0.8-1.9,0.8-4.3,0-5.6l-22-43.8c-2.4-4.6-9.1-4.6-11.5,0
					L175.2,644.2c-1.1,2.4-3.5,3.5-5.6,3.5H88.2c-3.5,0-6.4-3-6.4-6.4v-27.7c0-3.5,3-6.4,6.4-6.4h56.4c2.4,0,4.6-1.6,5.6-3.5
					l11.5-22.8c1.9-4.3-0.8-9.1-5.6-9.1h-36.3c-3.5,0-3.5-40.3,0-40.3c1.8,1.7,14,13.3,32.1,11.6c14.3-1.3,23.1-10.1,25.4-12.5
					c0.5,0,1.4,0,2.5,0c4,0.1,5.1,0.5,6.4-0.2c0.6-0.3,1.5-0.9,2.3-2.5l167.9-334.6c2.4-4.3-0.8-9.4-5.6-9.4h-67.7
					c-3.5,0-6.4-3-6.4-6.4v-27.1c0-3.5,3-6.4,6.4-6.4h67.7c4.6,0,8.1-5.4,5.6-9.4L332,87.3c-1.6-3-0.3-7.3,3-8.9l23.9-11.8
					c3-1.6,7-0.3,8.9,3l19.9,40c2.4,4.6,9.1,4.6,11.5,0l19.9-40c1.6-3,5.4-4.6,8.3-3l24.4,11.8c3,1.6,4.6,5.4,3,8.9l-24.4,48.6
					c-2.4,4.3,0.8,9.4,5.6,9.4h67.4c3.5,0,6.4,3,6.4,6.4v27.1c0,3.5-3,6.4-6.4,6.4h-66.9c-4.6,0-8.1,5.4-5.6,9.4l167.9,334.9
					c1.1,2.4,3.5,3.5,5.6,3.5h63.1c3.5,0,6.4,3,6.4,6.4v27.1c-4.2,0.5-8.6,1-13,1.6c-4.8,0.6-9.5,1.3-14,2.1
					c-1.8,0.5-7.8,2.3-11.2,7.9c-4.2,7-2.6,17.1,4.3,24.4c-0.3,0.9-1.6,4.7-0.8,5.1c0.9,0.5,4.1-3.6,4.5-4.1
					c18.4,1.7,36.7,3.3,55.1,5c3.5,0,6.4,3,6.4,6.4V642c0,3.5-3,6.4-6.4,6.4l-81.4,0.3C615.4,647.4,613.2,646.1,611.9,643.7z
					 M445.7,518.5L399,425.3c-2.4-4.6-9.1-4.6-11.5,0l-46.7,93.2c-2.4,4.3,0.8,9.4,5.6,9.4h94C444.9,527.9,448.1,523.1,445.7,518.5z
					 M399.7,312.8l21.8-43.8c0.8-1.9,0.8-4.3,0-5.6l-22-43.8c-2.4-4.6-9.1-4.6-11.5,0l-21.8,43.8c-0.8,1.9-0.8,4.3,0,5.6l22,43.8
					C390.6,317.9,397,317.9,399.7,312.8z"/>
			</g>
		</g>
	</g>
	<g>
		<defs>
			<path id="SVGID_00000075870622188300578200000013483786416805896851_" d="M11.6,433.9c0-17,0-34,0-51c0.3-1.2,0.8-2.4,0.9-3.7
				c0.2-1.8-0.1-3.7,0.1-5.5c1.2-8.5,2.4-17,3.9-25.5c2.2-12.2,4.4-24.5,7-36.6c2-9.1,4.4-18.1,7.1-27c3.8-12.6,7.9-25.1,12.3-37.4
				c3.6-10.2,7.8-20.1,12.1-30.1c4.5-10.5,9.1-21.1,14.2-31.4c7.7-15.5,15.8-30.8,24-46c4.2-7.9,8.8-15.7,13.6-23.2
				c10.7-16.7,22.6-32.5,36.9-46.3c2.3-2.2,4.9-4,7.1-6.2c8.4-8.4,17.6-15.6,27.7-21.9c14.4-9,29.8-15.3,46.5-18.4
				c2.9-0.5,5.7-1.3,8.6-1.9c10.3,0,20.7,0,31,0c2.2,0.4,4.5,0.7,6.7,1.1c18.7,3.4,36.7,9.2,54,17.2c16.9,7.9,33,17.2,48.6,27.4
				c9.6,6.3,19.1,12.7,29.8,17.2c8.4,3.5,16.8,7.1,25.4,10.3c21.1,7.7,42.2,15.3,63.4,22.8c15.2,5.4,30.5,10.6,45.7,16
				c4.1,1.4,8,3.2,12.1,4.7c5.8,2,11.7,3.7,17.5,5.9c14.2,5.6,28.4,11.2,42.5,17.2c11.8,5,23.5,10.2,35.1,15.6c6.5,3,12.8,6.5,19,10
				c9,5.1,17.9,10.2,26.7,15.6c11.5,7.1,22.3,15.1,32.2,24.3c6.7,6.2,13,12.9,18.8,20c5.1,6.3,9.3,13.3,12.6,20.9
				c7.3,17,10.2,35.1,10.9,53.3c0.7,20.6,1,41.2-1.6,61.8c-1.3,10.2-2.6,20.3-4,30.5c-2.2,16.5-6.2,32.6-9.9,48.7
				c-2.9,12.6-6.3,25.1-10.1,37.5c-4.6,14.9-9.8,29.7-14.8,44.5c-1.9,5.7-4.3,11.2-6.5,16.7c-2.1,5.4-5.1,10.5-7,16
				c-2.4,6.9-5.7,13.5-8.9,20c-4.2,8.7-8.4,17.4-13,25.9c-4.5,8.3-9.3,16.5-14.1,24.7c-2.5,4.3-5.2,8.5-8,12.6
				c-7.1,10.6-14.1,21.3-21.5,31.7c-4.3,6.1-9.1,11.8-13.8,17.6c-5.4,6.7-10.8,13.5-16.7,19.8c-10.4,11.2-21.6,21.7-33.4,31.4
				c-11.3,9.2-23,18-35.5,25.6c-10.4,6.4-21.1,12.2-32.2,16.9c-11.6,4.9-23.4,9.3-36,11.7c-8.6,1.7-17.2,3.6-26,3.9
				c-0.9,0-1.8,0.6-2.7,0.9c-9.7,0-19.3,0-29,0c-0.9-0.3-1.8-0.8-2.7-1c-8.5-1.3-17.1-2-25.5-4c-10.5-2.5-20.8-5.8-31-9.3
				c-16.6-5.7-32.3-13.3-47.4-22.1s-29.9-18-43.7-28.7c-7.7-6-15.6-11.8-23.2-18c-5.9-4.8-11.5-10-17.3-15.1
				c-5.8-5.2-11.7-10.4-17.5-15.6c-1.1-1-2.1-2.1-3.2-3.2c-7.5-6.8-15.2-13.4-22.4-20.5c-10.5-10.4-20.7-21.2-31-31.9
				c-6.8-7.1-13.7-14-20.2-21.4c-2.5-2.8-3.7-6.7-7.5-8.5c-0.8-0.4-1.1-1.6-1.7-2.4c-0.6-0.8-1.2-1.5-2-2.2c-1.9-1.6-4-2.9-5.8-4.6
				c-7-7.1-13.7-14.5-20.7-21.5c-6.8-6.8-13.9-13.3-20.9-20c-0.4-0.3-0.8-0.6-1.2-0.9c-10-7.1-18.3-15.9-25.8-25.5
				c-9.1-11.6-16-24.4-21.7-37.9c-6.6-15.7-10.2-32.2-13.6-48.8c-1.4-6.8-1.5-13.8-2.2-20.7C12.5,435.3,11.9,434.6,11.6,433.9z"/>
		</defs>
		<clipPath id="SVGID_00000015347464641841084680000011050727880428957870_">
			<use xlink:href="#SVGID_00000075870622188300578200000013483786416805896851_"  style="overflow:visible;"/>
		</clipPath>
		<g style="clip-path:url(#SVGID_00000015347464641841084680000011050727880428957870_);">
			<path class="st5" d="M130.1,648.8h-14.3V440h148.9v14.3H130.1v13.4h134.6V482H130.1v13.3h134.6v14.4H130.1V524l21.2,17.2
				l21.2-17.2l21.2,17.2l21.2-17.2l21.2,17.2l16.8-13.6l9,11.1l-25.7,20.8L215,542.4l-21.2,17.2l-21.2-17.2l-21.2,17.2l-21.2-17.2
				v106.4H130.1z M172.6,577.5c-2.7,0-5-1-6.9-2.9s-2.9-4.3-2.9-7.1c0-2.7,1-5,2.9-6.9s4.2-2.9,6.9-2.9s5,1,6.9,2.9s2.9,4.2,2.9,6.9
				c0,2.8-1,5.2-2.9,7.1C177.6,576.6,175.3,577.5,172.6,577.5z M215,577.5c-2.7,0-5-1-6.9-2.9s-2.9-4.3-2.9-7.1c0-2.7,1-5,2.9-6.9
				s4.2-2.9,6.9-2.9s5,1,6.9,2.9s2.9,4.2,2.9,6.9c0,2.8-1,5.2-2.9,7.1C220,576.6,217.7,577.5,215,577.5z"/>
			<path class="st5" d="M471.2,648.8l-60.2-120l-10.4,20.7l35.7,71.1h-87.4l35.7-71.1l-10.4-20.8L314,648.9h-32.6v-14.4h23.8
				l6.4-12.7h-19.1v-14.3h26.3L381,483.2h-30.2v-14.3H381l-11.4-22.7l12.9-6.4l10.1,20.4l10.3-20.4l12.9,6.4l-11.4,22.7h30.2v14.3
				h-30.2l62.3,124.1H493v14.3h-19.1l6.4,12.7h23.8v14.3L471.2,648.8z M360.4,648.6c-2.8,0-5.1-1-7-2.9s-2.8-4.2-2.8-6.9
				s0.9-5,2.8-6.9s4.2-2.9,7-2.9c2.7,0,5,1,6.9,2.9s2.9,4.2,2.9,6.9s-1,5-2.9,6.9C365.4,647.7,363.1,648.6,360.4,648.6z M413,606
				l-20.4-40.7L372.1,606H413z M392.7,533.5l10.3-20.8L392.5,492l-10.3,20.7L392.7,533.5z M392.7,648.6c-2.8,0-5.2-1-7.1-2.9
				s-2.9-4.2-2.9-6.9s1-5,2.9-6.9s4.3-2.9,7.1-2.9c2.7,0,5,1,6.9,2.9s2.9,4.2,2.9,6.9s-1,5-2.9,6.9
				C397.7,647.7,395.4,648.6,392.7,648.6z M424.7,648.6c-2.7,0-5-1-6.9-2.9s-2.9-4.2-2.9-6.9s1-5,2.9-6.9s4.2-2.9,6.9-2.9
				c2.8,0,5.1,1,7,2.9s2.8,4.2,2.8,6.9s-0.9,5-2.8,6.9C429.9,647.7,427.5,648.6,424.7,648.6z"/>
			<path class="st5" d="M668.8,672.8l-16.5-32.4c-11.3,4.8-23.2,7.6-35.7,8.3s-25-1-37.5-5.1c-13.6-4.4-25.7-11.2-36-20.3
				c-10.4-9.1-18.6-19.6-24.7-31.7s-9.8-24.9-11-38.5c-1.2-13.7,0.4-27.4,4.8-41.1c4-12.5,10-23.6,18-33.3
				c7.9-9.7,17.1-17.8,27.6-24.1l-16.4-32.4l12.7-6.5l16.5,32.4c11.2-4.9,23.1-7.6,35.6-8.3c12.5-0.7,25,1,37.5,5
				c13.7,4.5,25.8,11.2,36.2,20.3c10.4,9.1,18.6,19.6,24.7,31.7c6.1,12,9.8,24.9,11,38.5c1.2,13.7-0.4,27.4-4.9,41.1
				c-4,12.5-10,23.5-18,33.3c-7.9,9.7-17.2,17.7-27.7,24l16.5,32.4L668.8,672.8z M583.5,630c8.6,2.8,17.3,4.3,26.1,4.4l20.2-38.4
				c-1.5-2.8-3-5.7-4.4-8.6L613,610.9l-12.6-6.7l17-32.3l-4.2-8.2l-14.4,7.3l-6.5-12.7l14.4-7.3l-3.4-6.7l-14.4,7.3l-6.6-12.8
				l14.6-7.4l-4.2-8.1l-36.3-5.3l2.2-14.2l26.1,3.8l-4.4-8.6l-42.9-6.2c-4.9,7.1-8.8,15-11.6,23.6c-2.6,8-4,16-4.3,24.1l55.9,21
				l-15.9,57.7C568.2,623.9,575.6,627.4,583.5,630z M549.3,609.6l10.9-39.1l-38-14.3C525,577.1,534,595,549.3,609.6z M548.3,480
				l24.1,3.4l-8.1-15.8C558.5,471.1,553.2,475.3,548.3,480z M539.5,588.7c-2.4-0.8-4.3-2.4-5.7-4.9c-1.2-2.6-1.4-5.1-0.6-7.5
				c0.8-2.4,2.4-4.3,4.9-5.7c2.6-1.2,5.1-1.4,7.5-0.6c2.5,0.8,4.4,2.4,5.8,4.9c1.1,2.6,1.2,5.1,0.5,7.4c-0.8,2.4-2.4,4.3-4.8,5.7
				C544.5,589.3,542,589.5,539.5,588.7z M585.1,477l11.4-21.5c-6.8,1.1-13.2,3-19.4,5.5L585.1,477z M642.6,589.5l42.9,6.2
				c4.9-7.1,8.8-15,11.6-23.6c2.6-8,4-16,4.3-24.1l-56-21.1l16-57.7c-6.7-4.5-14.1-8.1-22.2-10.7c-8.6-2.8-17.3-4.2-25.9-4.3
				l-20.2,38.4l4.4,8.6l12.3-23.5l12.7,6.7l-17,32.3l4.2,8.2l14.4-7.3l6.5,12.7l-14.4,7.3l3.4,6.7L634,537l6.5,12.7l-14.4,7.5
				l4.2,8.1l36.1,5.2l-2,14.2l-26.1-3.8L642.6,589.5z M700.7,532.5c-2.8-21-11.9-38.8-27.3-53.5l-10.8,39.2L700.7,532.5z
				 M626.4,633.2c6.8-1.1,13.2-3,19.4-5.5l-8.2-16L626.4,633.2z M677.1,518.6c-2.4-0.8-4.3-2.4-5.7-4.9c-1.2-2.6-1.4-5.1-0.6-7.5
				c0.8-2.4,2.4-4.3,4.9-5.7c2.6-1.2,5.1-1.4,7.5-0.6c2.5,0.8,4.4,2.4,5.8,4.9c1.2,2.6,1.4,5.1,0.6,7.5c-0.8,2.4-2.4,4.3-4.9,5.7
				C682.2,519.2,679.6,519.4,677.1,518.6z M658.6,621.1c5.8-3.6,11.1-7.8,15.9-12.6l-24-3.4L658.6,621.1z"/>
		</g>
	</g>
</g>
</svg>
