<?xml version="1.0" encoding="utf-8"?>
<!-- Generator: Adobe Illustrator 26.0.1, SVG Export Plug-In . SVG Version: 6.00 Build 0)  -->
<svg version="1.1" id="Слой_1" xmlns="http://www.w3.org/2000/svg" xmlns:xlink="http://www.w3.org/1999/xlink" x="0px" y="0px"
	 viewBox="0 0 776.6 841.9" style="enable-background:new 0 0 776.6 841.9;" xml:space="preserve">
<g>
	<path d="M11.6,433.9c0-17,0-34,0-51c0.3-1.2,0.8-2.4,0.9-3.7c0.2-1.8-0.1-3.7,0.1-5.5c1.2-8.5,2.4-17,3.9-25.5
		c2.2-12.2,4.4-24.5,7-36.6c2-9.1,4.4-18.1,7.1-27c3.8-12.6,7.9-25.1,12.3-37.4c3.6-10.2,7.8-20.1,12.1-30.1
		c4.5-10.5,9.1-21.1,14.2-31.4c7.7-15.5,15.8-30.8,24-46c4.2-7.9,8.8-15.7,13.6-23.2c10.7-16.7,22.6-32.5,36.9-46.3
		c2.3-2.2,4.9-4,7.1-6.2c8.4-8.4,17.6-15.6,27.7-21.9c14.4-9,29.8-15.3,46.5-18.4c2.9-0.5,5.7-1.3,8.6-1.9c10.3,0,20.7,0,31,0
		c2.2,0.4,4.5,0.7,6.7,1.1c18.7,3.4,36.7,9.2,54,17.2c16.9,7.9,33,17.2,48.6,27.4c9.6,6.3,19.1,12.7,29.8,17.2
		c8.4,3.5,16.8,7.1,25.4,10.3c21.1,7.7,42.2,15.3,63.4,22.8c15.2,5.4,30.5,10.6,45.7,16c4.1,1.4,8,3.2,12.1,4.7
		c5.8,2,11.7,3.7,17.5,5.9c14.2,5.6,28.4,11.2,42.5,17.2c11.8,5,23.5,10.2,35.1,15.6c6.5,3,12.8,6.5,19,10
		c9,5.1,17.9,10.2,26.7,15.6c11.5,7.1,22.3,15.1,32.2,24.3c6.7,6.2,13,12.9,18.8,20c5.1,6.3,9.3,13.3,12.6,20.9
		c7.3,17,10.2,35.1,10.9,53.3c0.7,20.6,1,41.2-1.6,61.8c-1.3,10.2-2.6,20.3-4,30.5c-2.2,16.5-6.2,32.6-9.9,48.7
		c-2.9,12.6-6.3,25.1-10.1,37.5c-4.6,14.9-9.8,29.7-14.8,44.5c-1.9,5.7-4.3,11.2-6.5,16.7c-2.1,5.4-5.1,10.5-7,16
		c-2.4,6.9-5.7,13.5-8.9,20c-4.2,8.7-8.4,17.4-13,25.9c-4.5,8.3-9.3,16.5-14.1,24.7c-2.5,4.3-5.2,8.5-8,12.6
		c-7.1,10.6-14.1,21.3-21.5,31.7c-4.3,6.1-9.1,11.8-13.8,17.6c-5.4,6.7-10.8,13.5-16.7,19.8c-10.4,11.2-21.6,21.7-33.4,31.4
		c-11.3,9.2-23,18-35.5,25.6c-10.4,6.4-21.1,12.2-32.2,16.9c-11.6,4.9-23.4,9.3-36,11.7c-8.6,1.7-17.2,3.6-26,3.9
		c-0.9,0-1.8,0.6-2.7,0.9c-9.7,0-19.3,0-29,0c-0.9-0.3-1.8-0.8-2.7-1c-8.5-1.3-17.1-2-25.5-4c-10.5-2.5-20.8-5.8-31-9.3
		c-16.6-5.7-32.3-13.3-47.4-22.1c-15.1-8.8-29.9-18-43.7-28.7c-7.7-6-15.6-11.8-23.2-18c-5.9-4.8-11.5-10-17.3-15.1
		c-5.8-5.2-11.7-10.4-17.5-15.6c-1.1-1-2.1-2.1-3.2-3.2c-7.5-6.8-15.2-13.4-22.4-20.5c-10.5-10.4-20.7-21.2-31-31.9
		c-6.8-7.1-13.7-14-20.2-21.4c-2.5-2.8-3.7-6.7-7.5-8.5c-0.8-0.4-1.1-1.6-1.7-2.4c-0.6-0.8-1.2-1.5-2-2.2c-1.9-1.6-4-2.9-5.8-4.6
		c-7-7.1-13.7-14.5-20.7-21.5c-6.8-6.8-13.9-13.3-20.9-20c-0.4-0.3-0.8-0.6-1.2-0.9c-10-7.1-18.3-15.9-25.8-25.5
		c-9.1-11.6-16-24.4-21.7-37.9c-6.6-15.7-10.2-32.2-13.6-48.8c-1.4-6.8-1.5-13.8-2.2-20.7C12.5,435.3,11.9,434.6,11.6,433.9z"/>
</g>
</svg>
