<?xml version="1.0" encoding="utf-8"?>
<!-- Generator: Adobe Illustrator 26.0.1, SVG Export Plug-In . SVG Version: 6.00 Build 0)  -->
<svg version="1.1" id="Слой_1" xmlns="http://www.w3.org/2000/svg" xmlns:xlink="http://www.w3.org/1999/xlink" x="0px" y="0px"
	 viewBox="0 0 56.7 56.7" style="enable-background:new 0 0 56.7 56.7;" xml:space="preserve">
<style type="text/css">
	.st0{fill:#FEEBDA;}
	.st1{fill:#724014;}
</style>
<rect x="-1.7" y="-3" class="st0" width="62.8" height="64.3"/>
<g>
	<path class="st1" d="M45.9,51.4L33,25.6c-0.2-0.4-0.7-0.4-0.9,0l-1.8,3.5c-0.1,0.1-0.1,0.3,0,0.5l7.5,15c0.2,0.3-0.1,0.8-0.5,0.8
		h-18c-0.4,0-0.6-0.4-0.5-0.8l7.5-15c0.1-0.1,0.1-0.3,0-0.5l-1.8-3.5c-0.2-0.4-0.7-0.4-0.9,0L10.8,51.4c-0.1,0.2-0.3,0.3-0.5,0.3
		H3.9c-0.3,0-0.5-0.2-0.5-0.5v-2.2c0-0.3,0.2-0.5,0.5-0.5h4.5c0.2,0,0.4-0.1,0.5-0.3l0.9-1.8c0.2-0.3-0.1-0.7-0.5-0.7H6.4
		c-0.3,0-0.5-0.2-0.5-0.5v-2.2c0-0.3,0.2-0.5,0.5-0.5h5.1c0.2,0,0.4-0.1,0.5-0.3l13.5-26.8c0.2-0.3-0.1-0.8-0.5-0.8h-5.4
		c-0.3,0-0.5-0.2-0.5-0.5v-2.2c0-0.3,0.2-0.5,0.5-0.5h5.4c0.4,0,0.6-0.4,0.5-0.8l-2-3.8c-0.1-0.3,0-0.6,0.2-0.7l1.9-1
		c0.3-0.1,0.6,0,0.7,0.2l1.6,3.2c0.2,0.4,0.7,0.4,0.9,0l1.6-3.2C30.5,5,30.8,4.9,31.1,5L33,6c0.3,0.1,0.4,0.4,0.2,0.7l-1.9,3.9
		c-0.2,0.3,0.1,0.8,0.5,0.8h5.4c0.3,0,0.5,0.2,0.5,0.5V14c0,0.3-0.2,0.5-0.5,0.5h-5.4c-0.4,0-0.6,0.4-0.5,0.8l13.5,26.8
		c0.1,0.2,0.3,0.3,0.5,0.3h5.1c0.3,0,0.5,0.2,0.5,0.5v2.2c0,0.3-0.2,0.5-0.5,0.5h-2.9c-0.4,0-0.6,0.4-0.5,0.7l0.9,1.8
		c0.1,0.2,0.3,0.3,0.5,0.3h4.5c0.3,0,0.5,0.2,0.5,0.5v2.2c0,0.3-0.2,0.5-0.5,0.5l-6.5,0C46.1,51.7,46,51.5,45.9,51.4z M32.5,41.3
		l-3.7-7.5c-0.2-0.4-0.7-0.4-0.9,0l-3.8,7.5c-0.2,0.3,0.1,0.8,0.5,0.8h7.5C32.5,42.1,32.7,41.7,32.5,41.3z M28.8,24.8l1.7-3.5
		c0.1-0.1,0.1-0.3,0-0.5l-1.8-3.5c-0.2-0.4-0.7-0.4-0.9,0l-1.7,3.5c-0.1,0.1-0.1,0.3,0,0.5l1.8,3.5C28.1,25.2,28.6,25.2,28.8,24.8z"
		/>
</g>
</svg>
