<?xml version="1.0" encoding="utf-8"?>
<!-- Generator: Adobe Illustrator 26.0.1, SVG Export Plug-In . SVG Version: 6.00 Build 0)  -->
<svg version="1.1" id="Слой_1" xmlns="http://www.w3.org/2000/svg" xmlns:xlink="http://www.w3.org/1999/xlink" x="0px" y="0px"
	 viewBox="0 0 497.3 459.6" style="enable-background:new 0 0 497.3 459.6;" xml:space="preserve">
<g>
	<path d="M283.3-1.2c27.9,0.8,54.4,8.8,78.9,23.5C394.4,41.7,420,68,441.9,98.2c20.5,28.2,37.1,58.6,48.9,91.3
		c9.1,25.1,7.9,50.7,0.4,76.1c-8.9,29.9-25.2,55.7-44.8,79.6c-22.6,27.5-49,50.8-78.3,70.8c-17,11.6-34,23.6-54.5,28.7
		c-22.2,5.5-44.6,4.5-66.9,0.6c-47.2-8.3-91.2-25.7-133.3-48.3c-24-12.9-46.8-27.5-68.2-44.2c-22.7-17.7-35.8-40.3-39-69.2
		c-4.4-39.6-0.1-78.4,7.8-117.1c5.1-25,12.9-49.2,22.7-72.9C47,68.6,64.7,50.8,88.3,38.3c31.2-16.5,64.9-25.1,99.4-30.3
		c23.5-3.5,47.2-5.5,70.9-8C266.6-0.8,274.6-0.8,283.3-1.2z"/>
</g>
</svg>
