<?xml version="1.0" encoding="utf-8"?>
<!-- Generator: Adobe Illustrator 26.0.1, SVG Export Plug-In . SVG Version: 6.00 Build 0)  -->
<svg version="1.1" id="Слой_1" xmlns="http://www.w3.org/2000/svg" xmlns:xlink="http://www.w3.org/1999/xlink" x="0px" y="0px"
	 viewBox="0 0 1046.6 1088.8" style="enable-background:new 0 0 1046.6 1088.8;" xml:space="preserve">
<style type="text/css">
	.st0{fill:#AF5A3A;}
	.st1{fill:#753422;}
</style>
<g id="Group_175" transform="translate(-873.352 7)">
	<path id="Path_82" class="st0" d="M879.1-0.3H1920v800.4c0,0-540,148.6-695.5,143.5s-327.7-88.7-329.7-239.8s79.2-230.2,98.3-283.1
		s51-224.2-48.7-342.9S879.1-0.3,879.1-0.3z"/>
	<path id="Path_83" class="st1" d="M1139.7,0H1920v798.8c0,0-453.8,488-628.3,182.4s-26.1-459-68-664S1139.7,0,1139.7,0z"/>
</g>
<path id="toa-heftiba-qxvWnfHb3-M-unsplash" d="M1000.2,6.8H514.1c0,0-147.3,273.6-194.3,374.7s-20.6,308.1,222.4,450.8
	c243,142.6,319,83,333.1,74.7s70.7-76,86.9-232.9S1000.2,6.8,1000.2,6.8z"/>
</svg>
