<?xml version="1.0" encoding="utf-8"?>
<!-- Generator: Adobe Illustrator 26.0.1, SVG Export Plug-In . SVG Version: 6.00 Build 0)  -->
<svg version="1.1" id="Слой_1" xmlns="http://www.w3.org/2000/svg" xmlns:xlink="http://www.w3.org/1999/xlink" x="0px" y="0px"
	 viewBox="0 0 508 336.4" style="enable-background:new 0 0 508 336.4;" xml:space="preserve">
<style type="text/css">
	.st0{fill:#CA8B0C;}
	.st1{fill:#713F13;}
	.st2{opacity:0.72;}
	.st3{opacity:0.92;}
	.st4{opacity:0.21;}
	.st5{opacity:0.57;}
</style>
<g>
	<g>
		<g>
			<path class="st0" d="M241.1-130.7c-0.7,0-1.3-0.3-1.7-0.7c-0.7-0.7-0.7-1.1-0.7-1.7c0-0.7,0.3-1.3,0.7-1.7
				c0.7-0.7,1.1-0.7,1.7-0.7c1.6,0,2.6,1.1,2.6,2.6l0,0C243.8-131.7,242.7-130.7,241.1-130.7z"/>
			<path class="st0" d="M401.7-128.3c-1.6,0-2.6-1.1-2.6-2.6c0-1.4,1.1-2.6,2.6-2.6c0.7,0,1.3,0.3,1.7,0.7c0.9,0.9,0.9,2.6,0,3.4
				C403-128.5,402.1-128.3,401.7-128.3z"/>
			<path class="st0" d="M414.2-128.3c-1.6,0-2.6-1.1-2.6-2.6c0-1.4,1.1-2.6,2.6-2.6c1.4,0,2.6,1.1,2.6,2.6c0,0.7-0.4,1.3-0.7,1.7
				C415.6-128.5,414.9-128.3,414.2-128.3z"/>
			<path class="st0" d="M471.4-129.7c-1.6,0-2.6-1.1-2.6-2.6l0,0c0-0.7,0.3-1.3,0.7-1.7c0.7-0.7,1.1-0.7,1.7-0.7
				c0.7,0,1.3,0.3,1.7,0.7c0.4,0.4,0.7,1.1,0.7,1.7s-0.3,1.3-0.7,1.7C473-130,472.2-129.7,471.4-129.7z"/>
			<path class="st0" d="M510.6-130.7c-0.7,0-1.3-0.3-1.7-0.7s-0.7-1.1-0.7-1.7c0-0.7,0.3-1.3,0.7-1.7c0.7-0.7,1.1-0.7,1.7-0.7
				c1.6,0,2.6,1.1,2.6,2.6l0,0C513-131.7,511.8-130.7,510.6-130.7z"/>
			<g>
				<path class="st0" d="M241.1-121.9c-0.7,0-1.3-0.3-1.7-0.7c-0.9-0.9-0.9-2.6,0-3.4c0.7-0.7,1.1-0.7,1.7-0.7
					c1.6,0.3,2.4,1.6,2.1,2.8C243.4-123.1,242.5-122.2,241.1-121.9L241.1-121.9z"/>
				<path class="st0" d="M510.6-121.9c-0.7,0-1.3-0.3-1.7-0.7c-0.9-0.9-0.9-2.6,0-3.4c0.7-0.7,1.1-0.7,1.7-0.7
					c1.6,0.3,2.4,1.6,2.1,2.8C512.7-123.1,511.8-122.2,510.6-121.9L510.6-121.9z"/>
				<g>
					<path class="st1" d="M249.2-89.5c-5.2,0-10.3-1.3-15-4v3.4h-3.7v-6.1c-0.7-0.7-1.1-1.1-1.7-1.6l-0.4,2.8l-3.7-0.4l0.9-8.2
						l8.2-0.9l0.4,3.7l-3.7,0.4c0.7,0.7,1.1,1.1,1.7,1.7l6.1-1.3l0.7,3.7l-2.6,0.7c4,1.7,8.1,2.8,12.2,2.8c3.3,0,6.7-0.7,9.8-2
						v-17.4c-2-0.7-4-0.9-5.8-1.1c-0.4,0.7-0.7,1.3-1.3,1.7c-1.1,1.1-2.6,1.7-4.1,1.7c-1.7,0-3-0.7-4.1-1.7
						c-0.9-0.7-1.6-1.7-1.7-2.8c-4-0.3-7.4-1.3-10.6-2.8c-3.7-1.7-6.1-5.7-5.8-9.8c0-3.3,1.3-6.2,3.4-8.5c2.8-2.8,6.7-5,10.8-5.8
						c2.1-0.7,4.4-0.7,6.5-0.7c5.2,0,10.3,1.3,15,4v-3.4h3.7v6.1c0.7,0.7,1.1,1.1,1.7,1.7l0.4-2.8l3.7,0.4l-0.9,8.2l-8.2,0.9
						l-0.4-3.7l3.7-0.4c-0.7-0.7-1.1-1.1-1.7-1.7l-6.1,1.3l-0.7-3.7l2.6-0.7c-4-1.7-8.1-2.8-12.2-2.8c-3.3,0-6.7,0.7-9.8,2v17.6
						c2,0.7,4,0.9,5.8,1.1c0.4-0.7,0.7-1.3,1.3-1.7c1.1-1.1,2.6-1.7,4.1-1.7c1.6,0,3,0.7,4.1,1.7c0.7,0.7,1.3,1.7,1.7,2.8
						c7.7,0.7,12.6,2.8,15,6.7c1.1,1.7,1.7,4,1.6,6.1c0,3.3-1.3,6.2-3.4,8.5c-2.8,2.8-6.7,5-10.8,5.8
						C253.3-89.6,251.3-89.5,249.2-89.5z M232.8-120.9v-13.9c-2.4,1.7-3.7,4.5-4,7.4C229.1-124.6,230.5-121.9,232.8-120.9
						L232.8-120.9z M247.6-113.7c0.7,0,1.1-0.3,1.7-0.7c0.9-0.9,0.9-2.1,0-3c-0.4-0.4-0.9-0.7-1.7-0.7c-0.7,0-1.1,0.3-1.7,0.7
						c-0.9,0.9-0.9,2.1,0,3C246.4-114,247.1-113.7,247.6-113.7L247.6-113.7z M262.7-97.3c2.4-1.7,3.7-4.5,4-7.4
						c0.3-2.8-1.3-5.4-4-6.7V-97.3z"/>
					<path class="st1" d="M307.6-132h-20v-3.7h8.2v-3.3h-18.3v3.4h-3.7v-7.1h47.3v7.1h-3.7v-3.4h-18.3v3.3h8.2v3.7H307.6z
						 M304.5-89.5l-5-5v5h-3.7v-5l-5,5l-2.6-2.6l7.4-7.4v-26.1h-8.2v-3.6h20v3.7h-8.2v25.8l7.4,7.4L304.5-89.5z"/>
					<path class="st1" d="M351.4-89.5c-3.7,0-7.1-0.7-10.3-2c-6.2-2.8-11.5-7.8-14-14c-2.8-6.5-2.8-13.9,0-20.4
						c1.3-3,3.3-6.1,5.7-8.2c2.4-2.4,5.2-4.4,8.2-5.7c6.5-2.8,13.9-2.8,20.4,0c6.2,2.8,11.5,7.8,14,14c2.8,6.5,2.8,13.9,0,20.4
						c-2.8,6.2-7.8,11.5-14,14C358.5-90,355.1-89.5,351.4-89.5z M336.7-98.8l13-9.4v-16.3l-13-9.4c-4.5,4-7.4,9.4-8.1,15.4h6.9
						l-2.8-3.3l2.8-2.4l6.1,7.4l-6.1,7.4l-2.8-2.4l2.8-3.3h-6.9C329.3-108,332.1-102.5,336.7-98.8L336.7-98.8z M351.4-127.2
						l11.8-8.2c-0.9-0.7-1.7-0.9-2.6-1.3l-9.4,6.5l-9.4-6.5c-0.9,0.4-1.7,0.7-2.6,1.3L351.4-127.2z M360.6-95.1
						c0.9-0.4,1.7-0.7,2.6-1.3l-11.8-8.2l-11.8,8.2c0.7,0.7,1.7,0.9,2.6,1.3l9.4-6.5L360.6-95.1z M351.4-134.8l5-3.4
						c-3.3-0.7-6.7-0.7-9.9,0L351.4-134.8z M351.4-93.2c1.7,0,3.3-0.3,5-0.7l-5-3.4l-5,3.4C348.1-93.3,349.8-93.2,351.4-93.2z
						 M366.3-98.8c4.5-4,7.4-9.4,7.8-15.4h-7l2.8,3.3l-2.8,2.4l-6.1-7.4l6.1-7.4l2.8,2.4l-2.8,3.3h6.9c-0.7-6.1-3.3-11.8-7.8-15.4
						l-13,9.4v16.3L366.3-98.8z"/>
					<path class="st1" d="M426.7-89.5h-10.5v-13.9l-23.4-10.2v14l7.4,7.4l-2.6,2.6l-5-5v5h-3.7v-5l-5,5l-2.6-2.6l7.4-7.4v-30.6
						l-4.8,2.1l-1.6-3.3l6.1-2.8v-8.2h3.7v6.7l15-6.7c6.2,2.8,12.6,5.4,18.9,8.2v18.9l-14.3,6.1l7.4,3.3v6.5h6.9v3.7h-7.1v2.6h6.9
						L426.7-89.5z M392.5-120.9l3.7-3.7l-3.7-3.7V-120.9z M406-111.7v-26.1l-12.2,5.2l7.7,7.7l-7.7,7.7L406-111.7z M409.6-111.7
						l12.2-5.2l-7.7-7.7l7.7-7.7l-12.2-5.2V-111.7z M423-120.9v-7.1l-3.7,3.7L423-120.9z"/>
					<path class="st1" d="M446.4-89.5l-5-5v5h-3.7v-5l-5,5l-2.4-2.6l7.4-7.4v-32.7l-7.4-7.4l2.6-2.6l5,5v-5h3.7v5l5-5l2.6,2.6
						c-2.6,2.6-5,5-7.4,7.4v32.7l7.4,7.4L446.4-89.5z"/>
					<path class="st1" d="M490.6-89.5h-38.1v-3.7h10.8l-9.9-4.4v-37.1l9.9-4.4h-10.6v-3.7h38.1v3.7h-9.5l8.9,4l-1.6,3.3l-16-7.1
						l-15,6.7v8.2h14.7v3.7h-14.7v2.6h19.7l3.7-4.5l2.8,2.4l-3.3,4l3.3,4l-2.8,2.4l-3.7-4.5h-19.7v2.6h14.7v3.7h-14.7v8.2l15,6.7
						l16-7.1l1.6,3.3l-8.9,4h9.8v3.4h-0.5V-89.5z"/>
					<path class="st1" d="M518.4-89.5c-5.2,0-10.3-1.3-15-4v3.4h-3.7v-6.1c-0.7-0.7-1.1-1.1-1.7-1.6l-0.4,2.8l-3.7-0.4l0.9-8.2
						l8.2-0.9l0.4,3.7l-3.7,0.4c0.7,0.7,1.1,1.1,1.7,1.7l6.1-1.3l0.7,3.7l-2.6,0.7c4,1.7,8.1,2.8,12.2,2.8c3.3,0,6.7-0.7,9.8-2
						v-17.3c-2-0.7-4-0.9-5.8-1.1c-0.4,0.7-0.7,1.3-1.3,1.7c-1.1,1.1-2.6,1.7-4.1,1.7c-1.6,0-3-0.7-4.1-1.7
						c-0.7-0.7-1.3-1.7-1.7-2.8c-4-0.3-7.4-1.3-10.6-2.8c-3.7-1.7-6.1-5.7-5.8-9.8c0-3.3,1.3-6.2,3.4-8.5c2.8-2.8,6.7-5,10.8-5.8
						c7.1-1.7,15-0.7,21.4,3v-3.4h3.7v6.1c0.7,0.7,1.1,1.1,1.7,1.7l0.4-2.8l3.7,0.4l-0.9,8.2l-8.2,0.9l-0.6-3.4l3.7-0.4
						c-0.7-0.7-1.1-1.1-1.7-1.7l-6.1,1.3l-0.7-3.7l2.6-0.7c-4-1.7-8.1-2.8-12.2-2.8c-3.3,0-6.7,0.7-9.8,2v17.4c2,0.7,4,0.9,5.8,1.1
						c0.4-0.7,0.7-1.3,1.3-1.7c1.1-1.1,2.6-1.7,4.1-1.7c1.6,0,3,0.7,4.1,1.7c0.9,0.7,1.6,1.7,1.7,2.8c7.7,0.7,12.6,2.8,15,6.7
						c1.1,1.7,1.7,4,1.6,6.1c0,3.3-1.3,6.2-3.4,8.5c-2.8,2.8-6.7,5-10.8,5.8C522.9-89.6,520.8-89.5,518.4-89.5z M502.1-120.9v-13.9
						c-2.4,1.7-3.7,4.5-4,7.4C498.4-124.6,499.6-121.9,502.1-120.9L502.1-120.9z M517.1-113.7c0.7,0,1.1-0.3,1.7-0.7
						c0.9-0.9,0.9-2.1,0-3c-0.4-0.4-0.9-0.7-1.7-0.7c-0.7,0-1.1,0.3-1.7,0.7c-0.9,0.9-0.9,2.1,0,3
						C515.9-114,516.4-113.7,517.1-113.7L517.1-113.7z M531.8-97.3c2.4-1.7,3.7-4.5,4-7.4c0.3-2.8-1.3-5.4-4-6.7V-97.3z"/>
					<path class="st0" d="M254-104.9c-1.6-0.3-2.4-1.6-2.1-2.8c0.3-1.1,1.1-2,2.1-2.1c1.6,0.3,2.4,1.6,2.1,2.8
						C256.2-105.9,255-105.1,254-104.9z"/>
					<path class="st0" d="M254-96.4c-0.7,0-1.3-0.3-1.7-0.7c-0.9-0.9-0.9-2.6,0-3.4c0.7-0.7,1.1-0.7,1.7-0.7c1.6,0,2.6,1.1,2.6,2.6
						c0,0.7-0.3,1.3-0.7,1.7C255.3-96.6,254.9-96.4,254-96.4z"/>
					<path class="st0" d="M290.5-118.5c-1.6,0-2.6-1.1-2.6-2.6l0,0c0-1.6,1.1-2.6,2.6-2.6l0,0c1.6,0,2.6,1.1,2.6,2.6l0,0
						C292.6-119.7,291.4-118.5,290.5-118.5z"/>
					<path class="st0" d="M290.5-110.9c-1.6,0.3-2.6-0.9-2.8-2.1c-0.3-1.6,0.9-2.6,2.1-2.8c0.3,0,0.4,0,0.7,0
						c1.6-0.3,2.6,0.9,2.8,2.1c0.3,1.6-0.9,2.6-2.1,2.8C290.6-110.9,290.5-110.9,290.5-110.9z"/>
					<path class="st0" d="M304.9-118.5c-0.7,0-1.3-0.3-1.7-0.7c-0.7-0.4-0.7-1.1-0.7-1.7c0-1.6,1.1-2.6,2.6-2.6s2.6,1.1,2.6,2.6
						C307.6-119.7,306.5-118.5,304.9-118.5z"/>
					<path class="st0" d="M304.9-110.9c-1.6-0.3-2.4-1.6-2.1-2.8c0.3-1.1,1.1-2,2.1-2.1c1.6,0.3,2.4,1.6,2.1,2.8
						C307.2-111.7,306.2-110.9,304.9-110.9z"/>
					<path class="st0" d="M345.7-113.3c-0.7,0-1.3-0.3-1.7-0.7c-0.9-0.9-0.9-2.6,0-3.4c0.9-0.9,2.6-0.9,3.4,0s0.9,2.6,0,3.4
						C347-113.7,346.3-113.3,345.7-113.3z"/>
					<path class="st0" d="M357.2-113.3c-0.7,0-1.3-0.3-1.7-0.7c-0.9-0.9-0.9-2.6,0-3.4c0.9-0.9,2.6-0.9,3.7,0c0.9,0.9,0.9,2.6,0,3.4
						C358.5-113.7,357.9-113.3,357.2-113.3z"/>
					<path class="st0" d="M401.7-116.1c-1.6,0-2.6-1.1-2.6-2.6c0-0.7,0.3-1.3,0.7-1.7c0.9-0.9,2.6-0.9,3.7,0
						c0.7,0.7,0.7,1.1,0.7,1.7s-0.3,1.3-0.7,1.7C403-116.4,402.1-116.1,401.7-116.1z"/>
					<path class="st0" d="M414.2-116.1c-1.6,0-2.6-1.1-2.6-2.6l0,0c0-0.7,0.3-1.3,0.7-1.7c0.9-0.9,2.6-0.9,3.7,0
						c0.7,0.7,0.7,1.1,0.7,1.7C416.6-117.3,415.6-116.1,414.2-116.1L414.2-116.1z"/>
					<path class="st0" d="M471.4-97c-0.7,0-1.3-0.3-1.7-0.7c-0.9-0.9-0.9-2.6,0-3.7c0.7-0.7,1.1-0.7,1.7-0.7c0.7,0,1.3,0.3,1.7,0.7
						c0.9,0.9,0.9,2.6,0,3.4C473-97.3,472.2-97,471.4-97z"/>
					<path class="st0" d="M523.3-104.9c-1.6-0.3-2.4-1.6-2.1-2.8c0.3-1.1,1.1-2,2.1-2.1c1.6,0.3,2.4,1.6,2.1,2.8
						C525.3-105.9,524.5-105.1,523.3-104.9z"/>
					<path class="st0" d="M523.3-96.4c-0.7,0-1.3-0.3-1.7-0.7c-0.9-0.9-0.9-2.6,0-3.4c0.7-0.7,1.1-0.7,1.7-0.7s1.3,0.3,1.7,0.7
						c0.9,0.9,0.9,2.6,0,3.4C524.6-96.6,524-96.4,523.3-96.4z"/>
				</g>
			</g>
		</g>
		<g>
			<path class="st1" d="M208.2-159.4V-184H202l-8.9,8.9L184-184h-6.2v24.7h-9.1v-3.7h5.4v-2.4h-5.4v-3.7h5.4v-15.1h-5v-3.7h5v-14.8
				h-5.4v-3.7h5.4v-2.4h-5.4v-3.7h9.1v24.7h6.2l8.9-8.9l8.9,8.9h6.2v-24.7h9.1v3.7h-5.4v2.4h5.4v3.7h-5.4v15h5v3.7h-5v15h5.4v3.7
				h-5.4v2.4h5.4v3.7h-8.9V-159.4z M193.1-180l5.7-5.7l-5.7-5.7l-5.7,5.7L193.1-180z"/>
			<path class="st1" d="M258.8-159.4h-38v-3.7h10.8l-9.9-4.4v-37.1l9.9-4.4H221v-3.7h38v3.7h-9.5l8.9,4l-1.6,3.3l-16-7.1l-15,6.7
				v8.2h14.7v3.7h-14.7v2.6h19.7l3.7-4.5l2.8,2.4l-3.3,4l3.3,4l-2.8,2.4l-3.7-4.5h-19.7v2.4h14.7v3.7h-14.7v8.2l15,6.7l16-7.1
				l1.6,3.3l-8.9,4h9.8L258.8-159.4z"/>
			<path class="st1" d="M307.6-159.4H297v-13.8l-23.4-10.2v14l7.4,7.4l-2.6,2.6l-5-5v5h-3.7v-5l-5,5l-2.6-2.6l7.4-7.4v-30.5
				l-4.8,2.1l-1.6-3.3l6.2-2.8v-8.2h3.7v6.7l15-6.7c6.2,2.8,12.6,5.4,18.9,8.2v19.1l-14.3,6.1l7.4,3.3v6.5h6.9v3.7h-7.1v2.6h6.9
				L307.6-159.4z M273.7-191l3.7-3.7l-3.7-3.4V-191z M287.2-181.6v-26.1l-12.2,5.2l7.7,7.7l-7.7,7.7L287.2-181.6z M290.7-181.6
				l12.2-5.2l-7.7-7.7l7.7-7.7l-12.2-5.2V-181.6z M303.9-191v-7.1l-3.7,3.7L303.9-191z"/>
			<path class="st1" d="M327.3-159.4l-5-5v5h-3.7v-5l-5,5L311-162l7.4-7.4V-202l-7.4-7.4l2.6-2.6l5,5v-5h3.7v5l5-5l2.6,2.6
				c-2.6,2.6-5,5-7.4,7.4v32.7l7.4,7.4L327.3-159.4z"/>
			<path class="st1" d="M367-201.7h-20v-3.7h8.2v-3.3h-18.3v3.4h-3.4v-7.1h47.3v7.1h-3.7v-3.4h-18.3v3.3h8.2L367-201.7z M364-159.4
				l-5-5v5h-3.7v-5l-5,5l-2.6-2.6l7.4-7.4v-26h-8.2v-3.7h20v3.7h-8.2v26.1l7.4,7.4L364-159.4z"/>
			<path class="st1" d="M432.8-159.4l-15.2-30.3l-2.8,5.2l9.1,18h-22.1l9.1-18l-2.8-5l-15.2,30.3h-8.2v-3.7h6.1l1.7-3.3h-5v-3.7h6.7
				l15.7-31.3h-7.7v-3.4h7.7l-2.8-5.8l3.3-1.7l2.6,5l2.6-5l3.3,1.7l-2.8,5.8h7.7v3.7h-7.7l15.9,31.5h6.7v3.7h-5l1.7,3.3h6.1v3.7
				L432.8-159.4z M418-170.1l-5-10.3l-5.2,10.3H418z M412.8-188.5l2.6-5.2l-2.8-5.2l-2.6,5.2L412.8-188.5z"/>
			<path class="st1" d="M471.2-159.4c-3.4,0-7.1-0.7-10.3-2c-3-1.3-6.1-3.3-8.2-5.7c-2.4-2.4-4.4-5.2-5.7-8.2
				c-2.8-6.5-2.8-13.9,0-20.4c2.8-6.2,7.8-11.5,14-14c3.3-1.6,6.7-2.1,10.3-2c5,0,9.5,1.6,13.9,4c2.4,1.3,4.5,3,6.1,5.2
				c0.7,0.9,1.1,2.1,1.1,3.3c0,3.3-2.6,5.8-5.8,5.8s-5.8-2.6-5.8-5.8l0,0c0-2.1,1.3-4.1,3-5c-3.7-2.6-8.1-4-12.6-4
				c-3,0-6.1,0.7-8.9,1.7c-2.8,1.3-5.2,2.8-7.1,5c-2.1,2-4,4.5-5,7.1c-1.3,2.8-1.7,5.8-1.7,8.9c0,1.6,0.3,2.8,0.4,4.4h48.3
				c-0.7,3.3-1.7,6.2-3,9.4c-1.7,2.8-4,5.2-6.5,7.1c-2.4,1.7-5,3.3-7.7,4.1C477-159.8,474.1-159.4,471.2-159.4z M488-170.4
				c2-2.1,3.7-4.8,4.5-7.4h-42.9c1.1,2.8,2.6,5.2,4.5,7.4H488z M471.2-163c4.5,0,8.9-1.3,12.6-3.7h-25.1
				C462.2-164,466.5-163,471.2-163z M486.3-197.6c0.7,0,1.1-0.3,1.6-0.7c0.4-0.4,0.7-0.9,0.7-1.6s-0.3-1.1-0.7-1.6s-0.9-0.7-1.6-0.7
				c-1.1,0-2.1,0.9-2.1,2.1C484.3-198.5,485.2-197.6,486.3-197.6L486.3-197.6z"/>
			<path class="st1" d="M538.8-159.4h-38.1v-3.7h10.8l-9.9-4.4v-37.1l9.9-4.4h-10.6v-3.7H539v3.7h-9.5l8.9,4l-1.6,3.3l-16-7.1
				l-15,6.7v8.2h14.7v3.7h-14.7v2.6h20l3.7-4.5l2.8,2.4l-3.3,4l3.3,4l-2.8,2.4l-3.7-4.8h-20v2.6h14.7v3.7h-14.7v8.2l15,6.7l16-7.1
				l1.6,3.3l-8.9,4h9.8L538.8-159.4z"/>
			<path class="st0" d="M184.9-193.8c-1.6,0-2.6-1.1-2.6-2.6c0-1.4,1.1-2.6,2.6-2.6c1.6,0,2.6,1.1,2.6,2.6
				C187.3-194.8,186.1-193.8,184.9-193.8z"/>
			<path class="st0" d="M184.9-173c-1.6,0-2.6-1.1-2.6-2.6c0-1.4,1.1-2.6,2.6-2.6c1.6,0,2.6,1.1,2.6,2.6
				C187.3-174.1,186.1-173,184.9-173z"/>
			<path class="st0" d="M193.1-198.8c-1.6,0-2.6-1.1-2.4-2.6c0-1.6,1.1-2.6,2.6-2.4c0.7,0,1.3,0.3,1.7,0.7c0.9,0.9,0.9,2.6,0,3.4
				C194.2-199,193.5-198.5,193.1-198.8z"/>
			<path class="st0" d="M193.1-183.3c-0.7,0-1.3-0.3-1.7-0.7s-0.7-1.1-0.7-1.7c0-1.6,1.1-2.6,2.6-2.6c0.7,0,1.3,0.3,1.7,0.7
				c0.7,0.7,0.7,1.1,0.7,1.7c0,0.7-0.3,1.3-0.7,1.7C194.2-183.6,193.5-183.2,193.1-183.3z"/>
			<path class="st0" d="M193.1-168c-1.6,0-2.6-1.1-2.6-2.6c0-1.6,1.1-2.6,2.6-2.6c0.7,0,1.3,0.3,1.7,0.7c0.9,0.9,0.9,2.6,0,3.4
				C194.2-168.1,193.5-168,193.1-168z"/>
			<path class="st0" d="M201.2-193.8c-1.6,0-2.6-1.1-2.6-2.6c0-1.4,1.1-2.6,2.4-2.6c0.7,0,1.3,0.3,1.7,0.7c0.7,0.4,0.7,1.1,0.7,1.7
				C203.7-194.8,202.6-193.8,201.2-193.8z"/>
			<path class="st0" d="M201.2-173c-1.6,0-2.6-1.1-2.6-2.6c0-1.4,1.1-2.6,2.6-2.6c1.6,0,2.6,1.1,2.6,2.6c0,0.7-0.3,1.3-0.7,1.7
				C202.4-173.1,202-173,201.2-173z"/>
			<path class="st0" d="M240-199.6c-0.7,0-1.3-0.3-1.7-0.7c-0.9-0.9-0.9-2.6,0-3.7c0.9-0.9,2.6-0.9,3.7,0c0.9,0.9,0.9,2.6,0,3.7
				C241.3-199.9,240.6-199.6,240-199.6z"/>
			<path class="st0" d="M240-166.9c-1.6,0-2.6-1.1-2.6-2.6l0,0c0-0.7,0.3-1.3,0.7-1.7c0.9-0.9,2.6-0.9,3.7,0c0.9,0.9,0.9,2.6,0,3.4
				C241.3-167.1,240.6-166.9,240-166.9z"/>
			<path class="st0" d="M282.7-198c-0.7,0-1.3-0.3-1.7-0.7c-0.9-0.9-0.9-2.6,0-3.4c0.9-0.9,2.6-0.9,3.7,0c0.9,0.9,0.9,2.6,0,3.4
				C283.9-198.3,283.1-198,282.7-198z"/>
			<path class="st0" d="M282.7-186c-0.7,0-1.3-0.3-1.7-0.7c-0.7-0.7-0.7-1.1-0.7-1.7c0-0.6,0.3-1.3,0.7-1.7c0.9-0.9,2.6-0.9,3.7,0
				c0.7,0.7,0.7,1.1,0.7,1.7C285.1-187,283.9-186,282.7-186L282.7-186z"/>
			<path class="st0" d="M295-198c-1.6,0.3-2.6-0.9-2.8-2.1c-0.3-1.6,0.9-2.6,2.1-2.8c0.3,0,0.4,0,0.7,0c0.7,0,1.3,0.3,1.7,0.7
				c0.9,0.9,0.9,2.6,0,3.4C296.3-198.3,295.8-198,295-198z"/>
			<path class="st0" d="M295-186c-1.6,0-2.6-1.1-2.6-2.6l0,0c0-0.7,0.3-1.3,0.7-1.7c0.4-0.4,1.1-0.7,1.7-0.7c0.7,0,1.3,0.3,1.7,0.7
				c0.7,0.7,0.7,1.1,0.7,1.7c0,0.7-0.3,1.3-0.7,1.7C296.3-186.1,295.8-186,295-186z"/>
			<path class="st0" d="M349.8-188.4c-0.7,0-1.3-0.3-1.7-0.7c-0.9-0.9-0.9-2.6,0-3.4c0.9-0.9,2.6-0.9,3.4,0c0.8,0.9,0.9,2.6,0,3.4
				C351.1-188.5,350.3-188.4,349.8-188.4z"/>
			<path class="st0" d="M349.8-180.8c-0.7,0-1.3-0.3-1.7-0.7c-0.9-0.9-0.9-2.6,0-3.4c0.9-0.9,2.6-0.9,3.4,0c0.8,0.9,0.9,2.6,0,3.4
				C351.1-180.8,350.3-180.8,349.8-180.8z"/>
			<path class="st0" d="M364.6-188.4c-0.7,0-1.3-0.3-1.7-0.7c-0.9-0.9-0.9-2.6,0-3.4c0.9-0.9,2.6-0.9,3.4,0c0.8,0.9,0.9,2.6,0,3.4
				C365.9-188.5,365.3-188.4,364.6-188.4z"/>
			<path class="st0" d="M364.6-180.8c-0.7,0-1.3-0.3-1.7-0.7c-0.9-0.9-0.9-2.6,0-3.4c0.9-0.9,2.6-0.9,3.4,0c0.8,0.9,0.9,2.6,0,3.4
				C365.9-180.8,365.3-180.8,364.6-180.8z"/>
			<path class="st0" d="M404.5-159.4c-0.7,0-1.3-0.3-1.7-0.7c-0.9-0.9-0.9-2.6,0-3.4c0.9-0.9,2.6-0.9,3.4,0c0.8,0.9,0.9,2.6,0,3.4
				C405.8-159.8,405.1-159.4,404.5-159.4z"/>
			<path class="st0" d="M412.8-159.4c-0.7,0-1.3-0.3-1.7-0.7c-0.9-0.9-0.9-2.6,0-3.4c0.7-0.7,1.1-0.7,1.7-0.7
				c1.6,0.3,2.4,1.6,2.1,2.8C414.8-160.3,413.9-159.5,412.8-159.4L412.8-159.4z"/>
			<path class="st0" d="M421-159.4c-0.7,0-1.3-0.3-1.7-0.7c-0.9-0.9-0.9-2.6,0-3.4s2.6-0.9,3.4,0c0.8,0.9,0.9,2.6,0,3.4
				C422.3-159.8,421.4-159.4,421-159.4z"/>
			<polygon class="st0" points="476.3,-183.2 470.9,-187.4 465.5,-183.2 460,-187.4 455.9,-184 453.6,-187 460,-192.2 465.5,-188 
				470.9,-192.2 476.3,-188 481.5,-192.2 488,-187 485.9,-184 481.5,-187.4 			"/>
			<path class="st0" d="M460-171.7c-1.6,0-2.6-1.1-2.6-2.6c0-0.7,0.3-1.3,0.7-1.7c0.9-0.9,2.6-0.9,3.4,0c0.8,0.9,0.9,2.6,0,3.4
				C461.4-171.8,461-171.7,460-171.7z"/>
			<path class="st0" d="M470.9-171.7c-0.7,0-1.3-0.3-1.7-0.7c-0.9-0.9-0.9-2.6,0-3.4c0.7-0.7,1.1-0.7,1.7-0.7s1.3,0.3,1.7,0.7
				c0.9,0.9,0.9,2.6,0,3.4C472.2-171.8,471.6-171.7,470.9-171.7z"/>
			<path class="st0" d="M481.5-171.7c-0.7,0-1.3-0.3-1.7-0.7c-0.9-1.1-0.9-2.6,0-3.4c0.9-0.9,2.6-0.9,3.4,0c0.8,0.9,0.9,2.6,0,3.4
				C483.1-171.8,482.2-171.4,481.5-171.7z"/>
			<path class="st0" d="M519.6-199.6c-0.7,0-1.3-0.3-1.7-0.7c-0.9-0.9-0.9-2.6,0-3.7c0.9-0.9,2.6-0.9,3.7,0c0.9,0.9,0.9,2.6,0,3.7
				C520.9-199.9,520.5-199.6,519.6-199.6z"/>
			<path class="st0" d="M519.6-166.9c-1.6,0-2.6-1.1-2.6-2.6l0,0c0-0.7,0.3-1.3,0.7-1.7c0.9-0.9,2.6-0.9,3.7,0
				c0.9,0.9,0.9,2.6,0,3.4C520.9-167.1,520.5-166.9,519.6-166.9L519.6-166.9z"/>
		</g>
	</g>
</g>
<g class="st2">
	<path class="st0" d="M343.8,316.7l-18.9-63.1c-0.3-0.9-1.5-1.1-2.1-0.4l-5.4,7.2c-0.2,0.3-0.3,0.7-0.2,1l11,36.7
		c0.3,0.9-0.4,1.7-1.3,1.5l-40.4-7.1c-0.8-0.1-1.3-1.2-0.7-1.9l22.9-30.7c0.2-0.3,0.3-0.7,0.2-1l-2.6-8.6c-0.3-0.9-1.5-1.1-2.1-0.4
		L265,302.9c-0.3,0.4-0.7,0.5-1.1,0.5l-14.7-2.6c-0.6-0.1-1.1-0.7-1-1.4l0.9-5c0.1-0.6,0.7-1.1,1.4-1l10.2,1.8
		c0.4,0.1,0.9-0.1,1.1-0.5l2.8-3.8c0.5-0.7,0.1-1.7-0.7-1.8l-6.5-1.2c-0.6-0.1-1.1-0.7-1-1.4l0.9-4.9c0.1-0.6,0.7-1.1,1.4-1l11.4,2
		c0.4,0.1,0.9-0.1,1.1-0.5l40.9-55c0.6-0.7,0.2-1.7-0.7-1.9l-12.2-2.2c-0.6-0.1-1.1-0.7-1-1.4l0.9-4.9c0.1-0.6,0.7-1.1,1.4-1
		l12.2,2.2c0.8,0.1,1.6-0.7,1.3-1.5l-2.9-9.3c-0.2-0.6,0.2-1.3,0.8-1.5l4.7-1.4c0.6-0.2,1.3,0.2,1.5,0.8l2.3,7.9
		c0.3,0.9,1.5,1.1,2.1,0.4l4.9-6.6c0.4-0.5,1.1-0.7,1.6-0.3l4,2.9c0.5,0.4,0.7,1.1,0.3,1.7l-6,8c-0.6,0.7-0.2,1.7,0.7,1.9l12.2,2.1
		c0.6,0.1,1.1,0.7,1,1.4l-0.9,4.9c-0.1,0.6-0.7,1.1-1.4,1l-12.1-2.1c-0.8-0.1-1.6,0.7-1.3,1.5l19.6,65.8c0.1,0.5,0.5,0.7,0.9,0.8
		l11.4,2c0.6,0.1,1.1,0.7,1,1.4l-0.9,4.9c-0.1,0.6-0.7,1.1-1.4,1l-6.6-1.2c-0.8-0.1-1.6,0.6-1.3,1.5l1.4,4.5
		c0.1,0.5,0.5,0.7,0.9,0.8l10.2,1.8c0.6,0.1,1.1,0.7,1,1.4l-0.9,4.9c-0.1,0.6-0.7,1.1-1.4,1l-14.7-2.5
		C344.3,317.5,344,317.2,343.8,316.7z M317.8,288.9l-5.5-18.3c-0.3-0.9-1.5-1.1-2.1-0.4l-11.4,15.3c-0.6,0.7-0.2,1.7,0.7,1.9l17,3
		C317.3,290.5,318.1,289.8,317.8,288.9z M316,250.3l5.3-7.2c0.2-0.3,0.3-0.7,0.2-1l-2.6-8.6c-0.3-0.9-1.5-1.1-2.1-0.4l-5.3,7.2
		c-0.2,0.3-0.3,0.7-0.2,1l2.6,8.6C314.2,250.9,315.4,251.1,316,250.3z"/>
</g>
<g class="st3">
	<path class="st0" d="M144.8,220.1l-48.7-65.5c-0.7-0.9-2.2-0.7-2.6,0.5l-3.2,10.7c-0.1,0.5,0,1,0.2,1.3l28.4,38.1
		c0.7,0.9,0.2,2.1-0.9,2.3l-50.1,8.8c-1,0.2-2-0.9-1.6-1.9l13.7-45.5c0.1-0.5,0-1-0.2-1.3l-6.7-8.9c-0.7-0.9-2.2-0.7-2.6,0.5
		l-23.4,78.4c-0.1,0.6-0.6,0.9-1.1,1l-18.2,3.2c-0.8,0.1-1.6-0.4-1.7-1.2l-1.1-6.2c-0.1-0.8,0.4-1.6,1.2-1.7l12.6-2.2
		c0.5-0.1,1-0.5,1.1-1l1.7-5.6c0.3-1-0.5-2-1.6-1.8l-8.1,1.4c-0.8,0.1-1.6-0.4-1.7-1.2l-1.1-6.1c-0.1-0.8,0.4-1.6,1.2-1.7l14.1-2.5
		c0.5-0.1,1-0.5,1.1-1l24.4-81.5c0.4-1.1-0.6-2.1-1.6-1.9l-15.1,2.7c-0.8,0.1-1.6-0.4-1.7-1.2l-1.1-6.1c-0.1-0.8,0.4-1.6,1.2-1.7
		l15.1-2.7c1-0.2,1.6-1.5,0.9-2.3l-7.3-9.6c-0.5-0.6-0.3-1.6,0.3-2.1l4.9-3.6c0.6-0.5,1.6-0.3,2.1,0.3l6,8.2
		c0.7,0.9,2.2,0.7,2.6-0.5l2.9-9.7c0.2-0.7,1-1.2,1.7-1l5.9,1.7c0.7,0.2,1.2,1,1,1.9l-3.6,11.8c-0.4,1.1,0.6,2.1,1.6,1.9l15.1-2.7
		c0.8-0.1,1.6,0.4,1.7,1.2l1.1,6.1c0.1,0.8-0.4,1.6-1.2,1.7l-15,2.6c-1,0.2-1.6,1.5-0.9,2.3l50.8,68.3c0.3,0.5,0.9,0.6,1.4,0.6
		l14.1-2.5c0.8-0.1,1.6,0.4,1.7,1.2l1.1,6.1c0.1,0.8-0.4,1.6-1.2,1.7l-8.2,1.4c-1,0.2-1.6,1.4-0.9,2.3l3.5,4.7
		c0.3,0.5,0.9,0.6,1.4,0.6l12.6-2.2c0.8-0.1,1.6,0.4,1.7,1.2l1.1,6.1c0.1,0.8-0.4,1.6-1.2,1.7l-18.2,3.3
		C145.7,220.8,145.2,220.6,144.8,220.1z M102.7,198.7l-14.1-19c-0.7-0.9-2.2-0.7-2.6,0.5l-6.8,22.7c-0.4,1.1,0.6,2.1,1.6,1.9l21-3.7
		C102.8,200.8,103.4,199.6,102.7,198.7z M84.3,154.5l3.1-10.7c0.1-0.5,0-1-0.2-1.3l-6.7-8.9c-0.7-0.9-2.2-0.7-2.6,0.5l-3.1,10.7
		c-0.1,0.5,0,1,0.2,1.3l6.7,8.9C82.4,156,83.9,155.7,84.3,154.5z"/>
</g>
<g class="st4">
	<path class="st0" d="M383,12.7l-4,69c0,1,1.1,1.6,1.9,1.1l7.9-5.2c0.3-0.2,0.5-0.6,0.5-0.9l2.3-40.2c0-0.9,1-1.5,1.8-1l37.3,21.5
		c0.8,0.4,0.8,1.7,0,2.1l-33.6,22.1c-0.3,0.2-0.5,0.6-0.5,0.9l-0.5,9.4c0,1,1.1,1.6,1.9,1.1l57.8-38.1c0.4-0.3,0.9-0.2,1.3,0
		l13.5,7.8c0.6,0.3,0.8,1.1,0.5,1.7l-2.7,4.6c-0.3,0.6-1.1,0.8-1.7,0.5l-9.4-5.4c-0.4-0.2-0.9-0.2-1.3,0l-4.1,2.7
		c-0.7,0.5-0.7,1.6,0.1,2.1l6,3.5c0.6,0.3,0.8,1.1,0.5,1.7l-2.6,4.6c-0.3,0.6-1.1,0.8-1.7,0.5l-10.5-6.1c-0.4-0.2-0.9-0.2-1.3,0
		l-60.1,39.6c-0.8,0.5-0.8,1.6,0,2.1l11.3,6.5c0.6,0.3,0.8,1.1,0.5,1.7l-2.6,4.5c-0.3,0.6-1.1,0.8-1.7,0.5l-11.3-6.5
		c-0.8-0.4-1.9,0.1-1.8,1l-0.5,10.2c0,0.6-0.7,1.2-1.3,1.2l-5.1-0.3c-0.6,0-1.2-0.6-1.2-1.3l0.5-8.6c0-1-1.1-1.6-1.9-1.1l-7.2,4.8
		c-0.6,0.3-1.3,0.2-1.7-0.3l-2.9-4.3c-0.3-0.6-0.2-1.3,0.4-1.8l8.7-5.7c0.8-0.5,0.8-1.6,0-2.1l-11.2-6.5c-0.6-0.3-0.8-1.1-0.5-1.7
		l2.6-4.5c0.3-0.6,1.1-0.8,1.7-0.5l11.1,6.4c0.8,0.4,1.9-0.1,1.8-1l4.2-71.9c0.1-0.5-0.2-0.9-0.6-1.1l-10.5-6.1
		c-0.6-0.3-0.8-1.1-0.5-1.7l2.6-4.5c0.3-0.6,1.1-0.8,1.7-0.5l6.1,3.5c0.8,0.4,1.8,0,1.8-1l0.3-4.9c0.1-0.5-0.2-0.9-0.6-1.1l-9.4-5.4
		c-0.6-0.3-0.8-1.1-0.5-1.7l2.6-4.5c0.3-0.6,1.1-0.8,1.7-0.5l13.6,7.8C382.8,11.8,383,12.2,383,12.7z M398.7,49.6l-1.2,20
		c0,1,1.1,1.6,1.9,1.1l16.7-11c0.8-0.5,0.8-1.6,0-2.1l-15.7-9C399.7,48.1,398.7,48.6,398.7,49.6z M386.5,88.2l-7.8,5.2
		c-0.3,0.2-0.5,0.6-0.5,0.9l-0.5,9.4c0,1,1.1,1.6,1.9,1.1l7.8-5.2c0.3-0.2,0.5-0.6,0.5-0.9l0.5-9.4
		C388.5,88.2,387.5,87.6,386.5,88.2z"/>
</g>
<g class="st2">
	<path class="st0" d="M263.6,739.3l-18.9-63.1c-0.3-0.9-1.5-1.1-2.1-0.4l-5.4,7.2c-0.2,0.3-0.3,0.7-0.2,1l11,36.7
		c0.3,0.9-0.4,1.7-1.3,1.5l-40.4-7.1c-0.8-0.1-1.3-1.2-0.7-1.9l22.9-30.7c0.2-0.3,0.3-0.7,0.2-1l-2.6-8.6c-0.3-0.9-1.5-1.1-2.1-0.4
		l-39.3,52.9c-0.3,0.4-0.7,0.5-1.1,0.5l-14.7-2.6c-0.6-0.1-1.1-0.7-1-1.4l0.9-5c0.1-0.6,0.7-1.1,1.4-1l10.2,1.8
		c0.4,0.1,0.9-0.1,1.1-0.5l2.8-3.8c0.5-0.7,0.1-1.7-0.7-1.8l-6.5-1.2c-0.6-0.1-1.1-0.7-1-1.4l0.9-4.9c0.1-0.6,0.7-1.1,1.4-1l11.4,2
		c0.4,0.1,0.9-0.1,1.1-0.5l40.9-55c0.6-0.7,0.2-1.7-0.7-1.9l-12.2-2.2c-0.6-0.1-1.1-0.7-1-1.4l0.9-4.9c0.1-0.6,0.7-1.1,1.4-1
		l12.2,2.2c0.8,0.1,1.6-0.7,1.3-1.5l-2.9-9.3c-0.2-0.6,0.2-1.3,0.8-1.5l4.7-1.4c0.6-0.2,1.3,0.2,1.5,0.8l2.3,7.9
		c0.3,0.9,1.5,1.1,2.1,0.4l4.9-6.6c0.4-0.5,1.1-0.7,1.6-0.3l4,2.9c0.5,0.4,0.7,1.1,0.3,1.7l-6,8c-0.6,0.7-0.2,1.7,0.7,1.9l12.2,2.1
		c0.6,0.1,1.1,0.7,1,1.4l-0.9,4.9c-0.1,0.6-0.7,1.1-1.4,1l-12.1-2.1c-0.8-0.1-1.6,0.7-1.3,1.5l19.6,65.8c0.1,0.5,0.5,0.7,0.9,0.8
		l11.4,2c0.6,0.1,1.1,0.7,1,1.4l-0.9,4.9c-0.1,0.6-0.7,1.1-1.4,1l-6.6-1.2c-0.8-0.1-1.6,0.6-1.3,1.5l1.4,4.5
		c0.1,0.5,0.5,0.7,0.9,0.8l10.2,1.8c0.6,0.1,1.1,0.7,1,1.4l-0.9,4.9c-0.1,0.6-0.7,1.1-1.4,1l-14.7-2.5
		C264.1,740.1,263.7,739.8,263.6,739.3z M237.5,711.4l-5.5-18.3c-0.3-0.9-1.5-1.1-2.1-0.4l-11.4,15.3c-0.6,0.7-0.2,1.7,0.7,1.9l17,3
		C237.1,713.1,237.8,712.3,237.5,711.4z M235.8,672.8l5.3-7.2c0.2-0.3,0.3-0.7,0.2-1l-2.6-8.6c-0.3-0.9-1.5-1.1-2.1-0.4l-5.3,7.2
		c-0.2,0.3-0.3,0.7-0.2,1l2.6,8.6C234,673.5,235.2,673.7,235.8,672.8z"/>
</g>
<g class="st3">
	<path class="st0" d="M133.7,677.2l-48.7-65.5c-0.7-0.9-2.2-0.7-2.6,0.5l-3.2,10.7c-0.1,0.5,0,1,0.2,1.3l28.4,38.1
		c0.7,0.9,0.2,2.1-0.9,2.3l-50.1,8.8c-1,0.2-2-0.9-1.6-1.9L68.8,626c0.1-0.5,0-1-0.2-1.3l-6.7-8.9c-0.7-0.9-2.2-0.7-2.6,0.5
		L36,694.6c-0.1,0.6-0.6,0.9-1.1,1l-18.2,3.2c-0.8,0.1-1.6-0.4-1.7-1.2l-1.1-6.2c-0.1-0.8,0.4-1.6,1.2-1.7l12.6-2.2
		c0.5-0.1,1-0.5,1.1-1l1.7-5.6c0.3-1-0.5-2-1.6-1.8l-8.1,1.4c-0.8,0.1-1.6-0.4-1.7-1.2l-1.1-6.1c-0.1-0.8,0.4-1.6,1.2-1.7l14.1-2.5
		c0.5-0.1,1-0.5,1.1-1l24.4-81.5c0.4-1.1-0.6-2.1-1.6-1.9L42,587.3c-0.8,0.1-1.6-0.4-1.7-1.2l-1.1-6.1c-0.1-0.8,0.4-1.6,1.2-1.7
		l15.1-2.7c1-0.2,1.6-1.5,0.9-2.3l-7.3-9.6c-0.5-0.6-0.3-1.6,0.3-2.1l4.9-3.6c0.6-0.5,1.6-0.3,2.1,0.3l6,8.2
		c0.7,0.9,2.2,0.7,2.6-0.5l2.9-9.7c0.2-0.7,1-1.2,1.7-1l5.9,1.7c0.7,0.2,1.2,1,1,1.9L73,570.7c-0.4,1.1,0.6,2.1,1.6,1.9l15.1-2.7
		c0.8-0.1,1.6,0.4,1.7,1.2l1.1,6.1c0.1,0.8-0.4,1.6-1.2,1.7l-15,2.6c-1,0.2-1.6,1.5-0.9,2.3l50.8,68.3c0.3,0.5,0.9,0.6,1.4,0.6
		l14.1-2.5c0.8-0.1,1.6,0.4,1.7,1.2l1.1,6.1c0.1,0.8-0.4,1.6-1.2,1.7l-8.2,1.4c-1,0.2-1.6,1.4-0.9,2.3l3.5,4.7
		c0.3,0.5,0.9,0.6,1.4,0.6l12.6-2.2c0.8-0.1,1.6,0.4,1.7,1.2l1.1,6.1c0.1,0.8-0.4,1.6-1.2,1.7l-18.2,3.3
		C134.6,677.9,134.1,677.7,133.7,677.2z M91.5,655.8l-14.1-19c-0.7-0.9-2.2-0.7-2.6,0.5L68,659.9c-0.4,1.1,0.6,2.1,1.6,1.9l21-3.7
		C91.7,657.9,92.3,656.7,91.5,655.8z M73.1,611.6l3.1-10.7c0.1-0.5,0-1-0.2-1.3l-6.7-8.9c-0.7-0.9-2.2-0.7-2.6,0.5l-3.1,10.7
		c-0.1,0.5,0,1,0.2,1.3l6.7,8.9C71.3,613.1,72.7,612.8,73.1,611.6z"/>
</g>
<g class="st5">
	<path class="st0" d="M307.1,553.7l-35.2-59.4c-0.5-0.8-1.8-0.8-2.2,0.2l-3.6,8.7c-0.1,0.4-0.1,0.8,0.1,1.1l20.5,34.6
		c0.5,0.8,0,1.8-1,1.9l-43,3c-0.9,0.1-1.6-0.9-1.2-1.7l15.5-37.1c0.1-0.4,0.1-0.8-0.1-1.1l-4.8-8.1c-0.5-0.8-1.8-0.8-2.2,0.2
		l-26.6,63.9c-0.2,0.5-0.6,0.7-1,0.7l-15.6,1.1c-0.7,0-1.3-0.5-1.3-1.1L205,555c0-0.7,0.5-1.3,1.1-1.3L217,553c0.5,0,0.9-0.4,1-0.7
		l1.9-4.5c0.3-0.8-0.3-1.7-1.2-1.7l-7,0.5c-0.7,0-1.3-0.5-1.3-1.1l-0.4-5.3c0-0.7,0.5-1.3,1.1-1.3l12.1-0.8c0.5,0,0.9-0.4,1-0.7
		l27.7-66.4c0.4-0.9-0.3-1.8-1.2-1.7l-13,0.9c-0.7,0-1.3-0.5-1.3-1.1l-0.4-5.2c0-0.7,0.5-1.3,1.1-1.3l13-0.9c0.9-0.1,1.5-1.1,1-1.9
		l-5.3-8.7c-0.3-0.5-0.1-1.4,0.4-1.7l4.4-2.6c0.5-0.3,1.3-0.1,1.7,0.4l4.3,7.4c0.5,0.8,1.8,0.8,2.2-0.2l3.3-7.9
		c0.3-0.6,1-0.9,1.6-0.7l4.8,1.9c0.6,0.3,0.9,1,0.7,1.7l-4,9.7c-0.4,0.9,0.3,1.8,1.2,1.7l12.9-0.9c0.7,0,1.3,0.5,1.3,1.1l0.4,5.2
		c0,0.7-0.5,1.3-1.1,1.3l-12.8,0.9c-0.9,0.1-1.5,1.1-1,1.9l36.7,62c0.2,0.4,0.7,0.6,1.1,0.6l12.1-0.8c0.7,0,1.3,0.5,1.3,1.1l0.4,5.2
		c0,0.7-0.5,1.3-1.1,1.3l-7,0.5c-0.9,0.1-1.5,1-1,1.8l2.5,4.2c0.2,0.4,0.7,0.6,1.1,0.6l10.8-0.8c0.7,0,1.3,0.5,1.3,1.1l0.4,5.2
		c0,0.7-0.5,1.3-1.1,1.3l-15.6,1.1C307.8,554.4,307.4,554.2,307.1,553.7z M273.6,531.9l-10.2-17.2c-0.5-0.8-1.8-0.8-2.2,0.2
		l-7.7,18.5c-0.4,0.9,0.3,1.8,1.2,1.7l18-1.3C273.5,533.7,274.1,532.8,273.6,531.9z M262,493.1l3.6-8.7c0.1-0.4,0.1-0.8-0.1-1.1
		l-4.8-8.1c-0.5-0.8-1.8-0.8-2.2,0.2l-3.6,8.7c-0.1,0.4-0.1,0.8,0.1,1.1l4.8,8.1C260.3,494.2,261.5,494.1,262,493.1z"/>
</g>
<g class="st4">
	<path class="st0" d="M416,439.7l-4,69c0,1,1.1,1.6,1.9,1.1l7.9-5.2c0.3-0.2,0.5-0.6,0.5-0.9l2.3-40.2c0-0.9,1-1.5,1.8-1l37.3,21.5
		c0.8,0.4,0.8,1.7,0,2.1l-33.6,22.1c-0.3,0.2-0.5,0.6-0.5,0.9l-0.5,9.4c0,1,1.1,1.6,1.9,1.1l57.8-38.1c0.4-0.3,0.9-0.2,1.3,0
		l13.5,7.8c0.6,0.3,0.8,1.1,0.5,1.7l-2.7,4.6c-0.3,0.6-1.1,0.8-1.7,0.5l-9.4-5.4c-0.4-0.2-0.9-0.2-1.3,0l-4.1,2.7
		c-0.7,0.5-0.7,1.6,0.1,2.1l6,3.5c0.6,0.3,0.8,1.1,0.5,1.7l-2.6,4.6c-0.3,0.6-1.1,0.8-1.7,0.5l-10.5-6.1c-0.4-0.2-0.9-0.2-1.3,0
		l-60.1,39.6c-0.8,0.5-0.8,1.6,0,2.1l11.3,6.5c0.6,0.3,0.8,1.1,0.5,1.7l-2.6,4.5c-0.3,0.6-1.1,0.8-1.7,0.5l-11.3-6.5
		c-0.8-0.4-1.9,0.1-1.8,1l-0.5,10.2c0,0.6-0.7,1.2-1.3,1.2l-5.1-0.3c-0.6,0-1.2-0.6-1.2-1.3l0.5-8.6c0-1-1.1-1.6-1.9-1.1l-7.2,4.8
		c-0.6,0.3-1.3,0.2-1.7-0.3l-2.9-4.3c-0.3-0.6-0.2-1.3,0.4-1.8l8.7-5.7c0.8-0.5,0.8-1.6,0-2.1l-11.2-6.5c-0.6-0.3-0.8-1.1-0.5-1.7
		l2.6-4.5c0.3-0.6,1.1-0.8,1.7-0.5l11.1,6.4c0.8,0.4,1.9-0.1,1.8-1l4.2-71.9c0.1-0.5-0.2-0.9-0.6-1.1l-10.5-6.1
		c-0.6-0.3-0.8-1.1-0.5-1.7l2.6-4.5c0.3-0.6,1.1-0.8,1.7-0.5l6.1,3.5c0.8,0.4,1.8,0,1.8-1l0.3-4.9c0.1-0.5-0.2-0.9-0.6-1.1l-9.4-5.4
		c-0.6-0.3-0.8-1.1-0.5-1.7l2.6-4.5c0.3-0.6,1.1-0.8,1.7-0.5l13.6,7.8C415.8,438.7,416,439.2,416,439.7z M431.6,476.5l-1.2,20
		c0,1,1.1,1.6,1.9,1.1l16.7-11c0.8-0.5,0.8-1.6,0-2.1l-15.7-9C432.7,475,431.7,475.5,431.6,476.5z M419.5,515.2l-7.8,5.2
		c-0.3,0.2-0.5,0.6-0.5,0.9l-0.5,9.4c0,1,1.1,1.6,1.9,1.1l7.8-5.2c0.3-0.2,0.5-0.6,0.5-0.9l0.5-9.4
		C421.5,515.2,420.4,514.6,419.5,515.2z"/>
</g>
</svg>
