<?xml version="1.0" encoding="utf-8"?>
<svg version="1.1" xmlns="http://www.w3.org/2000/svg" xmlns:xlink="http://www.w3.org/1999/xlink" x="0px" y="0px"
	 viewBox="0 0 425.2 239.2" width="425.2" height="239.2" xml:space="preserve">
<style type="text/css">
	.st0{clip-path:url(#SVGID_2_);fill:url(#SVGID_3_);}
	.st1{fill:#A4D4CC;}
	.st2{clip-path:url(#SVGID_5_);fill:url(#SVGID_6_);}
	.st3{fill:#F6F6F6;}
	.st4{fill:#00967F;}
</style>
<g>
	<g>
		<g>
			<g>
				<g>
					<defs>
						<path id="SVGID_1_" d="M143.9,39.3c-5.5,13.3-3.3,26.3-7,37.3c-3.7,11-9.5,22.3-16.4,42.7c-8.8,25.9,19.9,29,30.8,13.8
							c10.8-15.2,7.9-21.9,6-31.5c-2.9-14.3,0.3-21.7,21.3-33.4c41.4-23.2,32.8-38,18.9-44.6c-9.3-3.2-17.1-4.5-23.5-4.5
							C155.8,18.9,148,29.5,143.9,39.3"/>
					</defs>
					<clipPath id="SVGID_2_">
						<use xlink:href="#SVGID_1_"  style="overflow:visible;"/>
					</clipPath>
					
						<linearGradient id="SVGID_3_" gradientUnits="userSpaceOnUse" x1="-214.559" y1="716.4686" x2="-211.6273" y2="716.4686" gradientTransform="matrix(0 -42.0326 42.0326 0 -29949.1445 -8876.2393)">
						<stop  offset="0" style="stop-color:#F5FAF9"/>
						<stop  offset="0.145" style="stop-color:#E7F3F1"/>
						<stop  offset="0.5183" style="stop-color:#C5E3DD"/>
						<stop  offset="0.8163" style="stop-color:#ADD8D1"/>
						<stop  offset="1" style="stop-color:#A4D4CC"/>
					</linearGradient>
					<rect x="111.8" y="18.9" class="st0" width="108.3" height="129.3"/>
				</g>
				<g>
					<path class="st1" d="M213.4,21.4c-5-1.7-7.6-7.1-5.9-12c1.7-5,7.1-7.6,12-5.9c5,1.7,7.6,7.1,5.9,12
						C223.7,20.4,218.3,23.1,213.4,21.4"/>
					<path class="st1" d="M151,21.6c-2.8-1-4.3-4-3.4-6.9c1-2.8,4-4.3,6.9-3.4c2.8,1,4.3,4,3.4,6.9C156.9,21,153.8,22.5,151,21.6"/>
					<path class="st1" d="M163.1,16.2c-3.1-1.1-4.8-4.4-3.7-7.6c1.1-3.1,4.4-4.8,7.6-3.7c3.1,1.1,4.8,4.4,3.7,7.6
						C169.6,15.6,166.3,17.2,163.1,16.2"/>
					<path class="st1" d="M177.9,12.9c-3.5-1.2-5.3-4.9-4.1-8.4c1.2-3.5,4.9-5.3,8.4-4.1c3.5,1.2,5.3,4.9,4.1,8.4
						C185.1,12.2,181.3,14.1,177.9,12.9"/>
					<path class="st1" d="M195.5,14c-3.6-1.2-5.6-5.2-4.4-8.8c1.2-3.6,5.2-5.6,8.8-4.4c3.6,1.2,5.6,5.2,4.3,8.8
						C203.1,13.3,199.2,15.3,195.5,14"/>
				</g>
				<g>
					<defs>
						<path id="SVGID_4_" d="M198.9,150.7c5.2,23.5,1.8,30.7-10.8,38.1c-8.5,5-15.4,7.2-19.5,25.5c-4.1,18.2,17.3,37.6,30.8,13.8
							c10.6-18.7,15.2-30.5,20.9-40.6c5.7-10.1,16.9-17.2,23.2-30.1c6.3-12.9,8.9-32-23.9-50.5c-3.2-1.3-6.5-2.2-9.6-2.2
							C199.2,104.7,190.9,114.8,198.9,150.7"/>
					</defs>
					<clipPath id="SVGID_5_">
						<use xlink:href="#SVGID_4_"  style="overflow:visible;"/>
					</clipPath>
					
						<linearGradient id="SVGID_6_" gradientUnits="userSpaceOnUse" x1="-203.1721" y1="717.136" x2="-200.2395" y2="717.136" gradientTransform="matrix(-27.0249 0 0 -27.0249 -5243.2998 19558.8262)">
						<stop  offset="0" style="stop-color:#F6F6F6"/>
						<stop  offset="0.2717" style="stop-color:#E9E9E9"/>
						<stop  offset="0.7226" style="stop-color:#D7D7D7"/>
						<stop  offset="1" style="stop-color:#D0D0D0"/>
					</linearGradient>
					<rect x="164.4" y="104.7" class="st2" width="87.8" height="147.2"/>
				</g>
				<g>
					<path class="st3" d="M210.6,93.7c4.6,2.6,10.4,1,12.9-3.6c2.6-4.6,1-10.4-3.6-12.9c-4.6-2.6-10.4-1-12.9,3.6
						C204.4,85.3,206,91.1,210.6,93.7"/>
					<path class="st3" d="M251.9,140.4c2.6,1.5,5.9,0.6,7.4-2.1c1.5-2.6,0.6-5.9-2-7.4c-2.6-1.5-5.9-0.6-7.4,2
						C248.4,135.6,249.3,138.9,251.9,140.4"/>
					<path class="st3" d="M247.9,127.7c2.9,1.6,6.5,0.6,8.1-2.3c1.6-2.9,0.6-6.5-2.3-8.1c-2.9-1.6-6.5-0.6-8.1,2.3
						C244,122.5,245,126.1,247.9,127.7"/>
					<path class="st3" d="M240.5,114.5c3.2,1.8,7.2,0.7,9-2.5c1.8-3.2,0.7-7.2-2.5-9c-3.2-1.8-7.2-0.7-9,2.5
						C236.2,108.7,237.4,112.7,240.5,114.5"/>
					<path class="st3" d="M227.9,102.1c3.4,1.9,7.6,0.7,9.5-2.6c1.9-3.4,0.7-7.6-2.6-9.5c-3.3-1.9-7.6-0.7-9.5,2.6
						C223.4,96,224.5,100.2,227.9,102.1"/>
					<path d="M63.3,98.6c0,2.2-0.3,4.7-1,7.2c-0.7,2.6-1.8,5-3.4,7.3c-2.1,3-4.7,5.2-7.9,6.7c-3.2,1.5-7.1,2.2-11.6,2.2h-6.5
						l8.4-36.8h7.5c2.7,0,5,0.4,6.8,1.1c1.8,0.7,3.3,1.7,4.5,2.9c1.2,1.3,2,2.7,2.5,4.3C63.1,95.2,63.3,96.8,63.3,98.6 M77.5,97.4
						c0-5.1-2.1-9.2-6.2-12.1c-4.2-3-9.5-4.4-16.1-4.4H18.5l-0.9,3.8c1.2,0.1,2.4,0.2,3.8,0.5c1.4,0.2,2.7,0.6,3.9,1
						c0.8,0.3,1.4,0.8,1.7,1.5c0.3,0.7,0.5,1.4,0.5,2.2c0,0.4,0,0.8-0.1,1.2c-0.1,0.4-0.1,0.8-0.2,1.2l-13.8,59.9
						c-0.3,1.4-0.8,2.5-1.5,3.6c-0.7,1-1.8,1.8-3.2,2.3c-0.8,0.3-2.1,0.6-3.9,0.8c-1.8,0.2-3.1,0.3-4.1,0.4L0,163.1h35.3l0.9-3.8
						c-1.4,0-3-0.2-4.7-0.4c-1.8-0.2-2.9-0.5-3.5-0.8c-0.9-0.4-1.5-0.9-1.9-1.6c-0.3-0.7-0.5-1.4-0.5-2.3c0-0.3,0-0.6,0.1-1
						c0-0.4,0.1-0.8,0.2-1.1l5.9-25.4h10c4.6,0,9-0.6,13.2-1.9c4.2-1.3,8-3.2,11.4-5.8c3.2-2.4,5.9-5.5,8-9.1
						C76.5,106.3,77.5,102.1,77.5,97.4"/>
					<path d="M128.4,109.4c-0.4-1.1-1-2-1.9-2.8c-0.8-0.7-1.8-1.3-2.9-1.6c-1.2-0.3-2.4-0.5-3.6-0.5c-2.6,0-5.1,0.8-7.4,2.4
						c-2.4,1.6-5.9,4.4-10.4,8.3h-0.3c0-3.4-0.7-5.9-2-7.6c-1.3-1.7-3.5-2.5-6.6-2.5c-1.7,0-3.6,0.3-6,1c-2.3,0.7-5,1.7-8,3
						l-0.9,3.7c0.7-0.2,1.8-0.4,3.1-0.7c1.3-0.3,2.4-0.4,3.2-0.4c2.2,0,3.7,0.4,4.4,1.1c0.7,0.7,1.1,2.2,1.1,4.3
						c0,0.9-0.2,2.3-0.5,4.1c-0.4,1.9-0.6,3.2-0.8,4.2L80.3,163h10.8l9.3-41.5c2.2-2.4,4.2-4.4,6.1-5.9c1.9-1.5,3.6-2.6,5.1-3.3
						c1.5-0.7,2.8-1.2,3.8-1.5c1.1-0.2,1.8-0.4,2.3-0.4c-0.6,1.5-1.2,2.9-1.8,4.4c-0.6,1.5-0.9,2.8-0.9,4c0,1.3,0.5,2.4,1.6,3.5
						c1,1,2.6,1.6,4.7,1.6c1.5,0,2.7-0.3,3.6-0.8c0.8-0.6,1.6-1.4,2.3-2.4c0.6-0.8,1-1.9,1.3-3.2c0.3-1.3,0.5-2.5,0.5-3.6
						C129,112,128.8,110.4,128.4,109.4"/>
					<path d="M176.4,125.1c0,4.4-0.4,8.7-1.3,12.9c-0.9,4.2-2.2,7.9-3.8,11.1c-1.7,3.3-3.8,6.1-6.5,8.2c-2.7,2.2-5.7,3.2-9.1,3.2
						c-3.9,0-6.7-1.4-8.6-4.3c-1.9-2.8-2.9-7-2.9-12.5c0-3.5,0.4-7.3,1.1-11.4c0.7-4.1,1.9-7.8,3.5-11.2c2-4.4,4.5-7.6,7.3-9.6
						s5.9-3,9.1-3c3.7,0,6.5,1.4,8.4,4.1C175.4,115.5,176.4,119.6,176.4,125.1 M188.2,127.3c0-6.8-1.9-12.3-5.8-16.5
						c-3.9-4.2-9.2-6.3-16.1-6.3c-5,0-9.6,1-13.9,3.1c-4.3,2.1-7.8,4.8-10.7,8.1c-2.9,3.4-5.1,7.3-6.8,11.7
						c-1.7,4.4-2.5,9.2-2.5,14.4c0,7,2,12.5,6,16.7c4,4.1,9.2,6.2,15.6,6.2c5.5,0,10.4-1.1,14.5-3.2c4.2-2.1,7.8-5,10.7-8.5
						c2.9-3.4,5.2-7.4,6.7-12C187.4,136.4,188.2,131.8,188.2,127.3"/>
					<path class="st4" d="M252.8,80.9l-0.9,3.8c1,0.1,2.1,0.2,3.5,0.4c1.4,0.2,2.6,0.5,3.7,0.9c1.1,0.3,2,0.8,2.8,1.3
						c0.7,0.5,1.1,1.2,1.1,2c0,0.4-0.3,1.4-0.8,2.9c-0.5,1.6-1.9,4.3-4.2,8.2c-2.5,4.2-6.5,10.7-12.1,19.7c-5.6,9-11,17.7-16.4,26
						c-2.3-15.8-4-28-5.3-36.7c-1.2-8.7-2.1-14.9-2.6-18.7c0-0.2,0-0.5-0.1-1c0-0.4-0.1-0.9-0.1-1.2c0-1.2,0.8-2,2.5-2.6
						c1.7-0.6,4.6-1,8.6-1.2l0.9-3.8h-33.2l-0.9,3.8c1,0.1,2.2,0.3,3.4,0.6c1.2,0.3,2.2,0.8,3.1,1.5c1.1,0.8,1.9,1.7,2.5,2.5
						c0.6,0.9,0.9,1.9,1.1,3.2c0.7,4.2,2.1,14,4.2,29.2c2.1,15.2,4.1,29.3,6,42.3h4.8c8.7-14.1,17.2-27.6,25.4-40.7
						c8.2-13.1,14.4-22.7,18.4-28.8c1.1-1.7,2.2-3.2,3.2-4.4c1-1.2,2.4-2.3,4-3.2c1.1-0.6,2.4-1.1,3.9-1.5c1.5-0.4,2.8-0.6,3.8-0.6
						l0.9-3.8H252.8z"/>
					<path class="st4" d="M309,125.1c0,4.4-0.4,8.7-1.3,12.9c-0.9,4.2-2.2,7.9-3.8,11.1c-1.7,3.3-3.8,6.1-6.5,8.2
						c-2.7,2.2-5.7,3.2-9.1,3.2c-3.9,0-6.7-1.4-8.6-4.3c-1.9-2.8-2.9-7-2.9-12.5c0-3.5,0.4-7.3,1.1-11.4c0.7-4.1,1.9-7.8,3.5-11.2
						c2-4.4,4.5-7.6,7.3-9.6c2.8-2,5.8-3,9-3c3.7,0,6.5,1.4,8.4,4.1C308,115.5,309,119.6,309,125.1 M320.8,127.3
						c0-6.8-1.9-12.3-5.8-16.5c-3.9-4.2-9.2-6.3-16.1-6.3c-5,0-9.6,1-13.9,3.1c-4.3,2.1-7.8,4.8-10.7,8.1c-2.9,3.4-5.1,7.3-6.8,11.7
						c-1.7,4.4-2.5,9.2-2.5,14.4c0,7,2,12.5,6,16.7c4,4.1,9.2,6.2,15.6,6.2c5.5,0,10.4-1.1,14.5-3.2c4.2-2.1,7.8-5,10.7-8.5
						c2.9-3.4,5.2-7.4,6.7-12C320,136.4,320.8,131.8,320.8,127.3"/>
					<path class="st4" d="M367.6,115.2c0,3.6-0.8,6.7-2.3,9.3c-1.6,2.6-3.9,4.7-7.1,6.4c-2.2,1.2-5.1,2.1-8.4,2.8
						c-3.4,0.7-6.4,1.3-9.1,1.6c1-7.6,3.5-13.9,7.4-19c3.9-5.1,8.2-7.6,12.8-7.6c0.8,0,1.6,0.1,2.4,0.2c0.8,0.1,1.5,0.4,2.2,0.9
						c0.7,0.4,1.2,1.1,1.6,1.9C367.4,112.5,367.6,113.7,367.6,115.2 M378.2,116.6c0-3.5-1.3-6.4-4-8.7c-2.7-2.3-6.8-3.4-12.3-3.4
						c-5,0-9.6,1.1-13.7,3.3c-4.1,2.2-7.6,5.1-10.5,8.7c-2.9,3.7-5.2,7.7-6.7,12.1c-1.5,4.4-2.3,9.1-2.3,13.9c0,7,1.8,12.4,5.4,16.3
						c3.6,3.8,8.8,5.7,15.6,5.7c5,0,9.8-1.4,14.4-4.2c4.6-2.8,8.5-6.6,11.6-11.3l-3.3-2.4c-2.9,3.8-5.8,6.7-8.7,8.6
						c-2.9,1.9-6.4,2.9-10.2,2.9c-4.4,0-7.7-1.6-9.9-4.8c-2.3-3.2-3.4-7.9-3.4-14c4.4-0.5,8.5-1.2,12.1-2c3.7-0.8,7.3-1.9,10.9-3.2
						c4.9-1.7,8.6-4.1,11.2-7C376.9,124.2,378.2,120.7,378.2,116.6"/>
					<path class="st4" d="M406.5,163c2.4-0.8,4.9-1.6,7.6-2.7l1-4.2c-1,0.4-2.4,0.7-4.2,1c-1.8,0.2-3.2,0.4-4.2,0.4
						c-2.8,0-4.7-0.5-5.8-1.5c-1.1-1-1.6-2.5-1.6-4.7c0-1,0.1-2.1,0.3-3.5c0.2-1.4,0.5-2.8,0.9-4.3l7.5-31.9h16l1.2-5.3h-16.1
						l3.9-16.9h-10.4l-4,16.9H388l-1.2,5.3h10.3l-9,38.6c-0.2,1-0.3,1.9-0.5,2.7c-0.1,0.8-0.2,1.6-0.2,2.5c0,2.8,0.8,4.9,2.5,6.4
						c1.7,1.5,4.4,2.2,8,2.2C401.3,164.2,404.1,163.8,406.5,163"/>
				</g>
			</g>
		</g>
	</g>
	<g>
		<path d="M51,184.6h6.7c5.9,0.1,8.9,3.4,8.9,9.7c0,6.4-3.1,9.6-8.9,9.7H51V184.6z M52.8,202.5h4c5.6,0,8-2.3,8-8.1s-2.4-8.2-8-8.1
			h-4V202.5z"/>
		<path d="M70.9,197.5c0,2.5,1.3,5.5,4.6,5.5c2.5,0,3.9-1.5,4.4-3.6h1.7c-0.7,3.2-2.6,5-6.1,5c-4.5,0-6.3-3.4-6.3-7.4
			c0-3.7,1.9-7.4,6.3-7.4c4.5,0,6.3,4,6.2,7.9H70.9z M80,196c-0.1-2.6-1.7-5-4.5-5c-2.8,0-4.4,2.5-4.6,5H80z"/>
		<path d="M92.6,190h1.6v2.7h0.1c0.8-1.9,2.8-3.1,5-3.1c4.3,0,6.3,3.5,6.3,7.4s-2,7.4-6.3,7.4c-2.1,0-4.1-1.1-4.9-3.1h-0.1v7.9h-1.7
			V190z M99.3,191c-3.8,0-4.9,2.8-4.9,6c0,2.9,1.3,6,4.9,6c3.3,0,4.6-3.1,4.6-6C103.9,194.1,102.5,191,99.3,191z"/>
		<path d="M108.8,190h1.6v3.3h0.1c0.9-2.3,2.8-3.6,5.3-3.5v1.7c-3.1-0.2-5.2,2.1-5.2,5v7.5h-1.7V190z"/>
		<path d="M130,197c0,4-2.3,7.4-6.6,7.4c-4.3,0-6.6-3.4-6.6-7.4c0-4,2.3-7.4,6.6-7.4C127.7,189.6,130,193,130,197z M118.5,197
			c0,3,1.6,6,4.9,6c3.3,0,4.9-3,4.9-6c0-3-1.6-6-4.9-6C120.1,191,118.5,194,118.5,197z"/>
		<path d="M138.6,191.4h-2.8v12.6h-1.7v-12.6h-2.4V190h2.4v-1.3c0-2.4,0.7-4.1,3.4-4.1c0.5,0,0.9,0,1.4,0.1v1.5
			c-0.5-0.1-0.8-0.1-1.3-0.1c-1.9,0-1.9,1.2-1.9,2.7v1.2h2.8V191.4z"/>
		<path d="M141.7,197.5c0,2.5,1.3,5.5,4.6,5.5c2.5,0,3.9-1.5,4.4-3.6h1.7c-0.7,3.2-2.6,5-6.1,5c-4.5,0-6.3-3.4-6.3-7.4
			c0-3.7,1.9-7.4,6.3-7.4c4.5,0,6.3,4,6.2,7.9H141.7z M150.8,196c-0.1-2.6-1.7-5-4.5-5c-2.8,0-4.4,2.5-4.6,5H150.8z"/>
		<path d="M163.8,194.1c-0.1-2.1-1.7-3.1-3.7-3.1c-1.5,0-3.3,0.6-3.3,2.4c0,1.5,1.7,2.1,2.9,2.4l2.3,0.5c2,0.3,4,1.4,4,3.9
			c0,3.1-3,4.2-5.6,4.2c-3.3,0-5.5-1.5-5.8-5h1.7c0.1,2.3,1.9,3.5,4.1,3.5c1.6,0,3.8-0.7,3.8-2.7c0-1.6-1.5-2.2-3.1-2.6l-2.2-0.5
			c-2.2-0.6-3.9-1.4-3.9-3.8c0-2.9,2.8-4,5.3-4c2.8,0,5,1.5,5.2,4.5H163.8z"/>
		<path d="M177.5,194.1c-0.1-2.1-1.7-3.1-3.7-3.1c-1.5,0-3.3,0.6-3.3,2.4c0,1.5,1.7,2.1,2.9,2.4l2.3,0.5c2,0.3,4,1.4,4,3.9
			c0,3.1-3,4.2-5.6,4.2c-3.3,0-5.5-1.5-5.8-5h1.7c0.1,2.3,1.9,3.5,4.1,3.5c1.6,0,3.8-0.7,3.8-2.7c0-1.6-1.5-2.2-3.1-2.6l-2.2-0.5
			c-2.2-0.6-3.9-1.4-3.9-3.8c0-2.9,2.8-4,5.3-4c2.8,0,5,1.5,5.2,4.5H177.5z"/>
		<path d="M182.8,184.6h1.7v2.8h-1.7V184.6z M182.8,190h1.7v14.1h-1.7V190z"/>
		<path d="M200.9,197c0,4-2.3,7.4-6.6,7.4c-4.3,0-6.6-3.4-6.6-7.4c0-4,2.3-7.4,6.6-7.4C198.6,189.6,200.9,193,200.9,197z M189.3,197
			c0,3,1.6,6,4.9,6c3.3,0,4.9-3,4.9-6c0-3-1.6-6-4.9-6C191,191,189.3,194,189.3,197z"/>
		<path d="M204,190h1.7v2.4h0.1c0.6-1.7,2.5-2.8,4.5-2.8c4,0,5.1,2.1,5.1,5.4v9h-1.7v-8.8c0-2.4-0.8-4.2-3.6-4.2
			c-2.7,0-4.4,2.1-4.4,4.8v8.2H204V190z"/>
		<path d="M220.2,197.5c0,2.5,1.3,5.5,4.6,5.5c2.5,0,3.9-1.5,4.4-3.6h1.7c-0.7,3.2-2.6,5-6.1,5c-4.5,0-6.3-3.4-6.3-7.4
			c0-3.7,1.9-7.4,6.3-7.4c4.5,0,6.3,4,6.2,7.9H220.2z M229.3,196c-0.1-2.6-1.7-5-4.5-5c-2.8,0-4.4,2.5-4.6,5H229.3z"/>
		<path d="M233.9,184.6h1.7v19.5h-1.7V184.6z"/>
		<path d="M240.4,197.5c0,2.5,1.3,5.5,4.6,5.5c2.5,0,3.9-1.5,4.4-3.6h1.7c-0.7,3.2-2.6,5-6.1,5c-4.5,0-6.3-3.4-6.3-7.4
			c0-3.7,1.9-7.4,6.3-7.4c4.5,0,6.3,4,6.2,7.9H240.4z M249.5,196c-0.1-2.6-1.7-5-4.5-5c-2.8,0-4.4,2.5-4.6,5H249.5z"/>
		<path d="M262.2,190h1.6v2.7h0.1c0.8-1.9,2.8-3.1,5-3.1c4.3,0,6.3,3.5,6.3,7.4s-2,7.4-6.3,7.4c-2.1,0-4.1-1.1-4.9-3.1h-0.1v7.9
			h-1.7V190z M268.9,191c-3.8,0-4.9,2.8-4.9,6c0,2.9,1.3,6,4.9,6c3.3,0,4.6-3.1,4.6-6C273.5,194.1,272.1,191,268.9,191z"/>
		<path d="M279.4,197.5c0,2.5,1.3,5.5,4.6,5.5c2.5,0,3.9-1.5,4.4-3.6h1.7c-0.7,3.2-2.6,5-6.1,5c-4.5,0-6.3-3.4-6.3-7.4
			c0-3.7,1.9-7.4,6.3-7.4c4.5,0,6.3,4,6.2,7.9H279.4z M288.5,196c-0.1-2.6-1.7-5-4.5-5c-2.8,0-4.4,2.5-4.6,5H288.5z"/>
		<path d="M305.5,204.1h-1.6v-2.7h-0.1c-0.7,1.8-3,3.1-5,3.1c-4.3,0-6.3-3.5-6.3-7.4s2-7.4,6.3-7.4c2.1,0,4.1,1.1,4.9,3.1h0.1v-8.1
			h1.7V204.1z M298.8,203c3.7,0,4.9-3.1,4.9-6c0-2.9-1.3-6-4.9-6c-3.3,0-4.6,3.1-4.6,6C294.2,199.9,295.5,203,298.8,203z"/>
		<path d="M309.3,184.6h1.7v2.8h-1.7V184.6z M309.3,190h1.7v14.1h-1.7V190z"/>
		<path d="M324.8,194.4c-0.5-2.1-1.7-3.4-4-3.4c-3.3,0-4.9,3-4.9,6c0,3,1.6,6,4.9,6c2.1,0,3.9-1.7,4.1-4h1.7
			c-0.5,3.4-2.7,5.4-5.8,5.4c-4.3,0-6.6-3.4-6.6-7.4c0-4,2.3-7.4,6.6-7.4c3,0,5.3,1.6,5.7,4.8H324.8z"/>
		<path d="M340.9,204.1h-1.6v-2.5h-0.1c-0.9,1.9-2.8,2.9-4.9,2.9c-3.5,0-4.9-2.1-4.9-5.3V190h1.7v9.2c0.1,2.5,1,3.9,3.8,3.9
			c2.9,0,4.2-2.8,4.2-5.6V190h1.7V204.1z"/>
		<path d="M344.7,190h1.6v3.3h0.1c0.9-2.3,2.8-3.6,5.3-3.5v1.7c-3.1-0.2-5.2,2.1-5.2,5v7.5h-1.7V190z"/>
		<path d="M354.3,197.5c0,2.5,1.3,5.5,4.6,5.5c2.5,0,3.9-1.5,4.4-3.6h1.7c-0.7,3.2-2.6,5-6.1,5c-4.5,0-6.3-3.4-6.3-7.4
			c0-3.7,1.9-7.4,6.3-7.4c4.5,0,6.3,4,6.2,7.9H354.3z M363.4,196c-0.1-2.6-1.7-5-4.5-5c-2.8,0-4.4,2.5-4.6,5H363.4z"/>
	</g>
</g>
</svg>