<?xml version="1.0" encoding="utf-8"?>
<!-- Generator: Adobe Illustrator 26.0.1, SVG Export Plug-In . SVG Version: 6.00 Build 0)  -->
<svg version="1.1" id="Слой_1" xmlns="http://www.w3.org/2000/svg" xmlns:xlink="http://www.w3.org/1999/xlink" x="0px" y="0px"
	 viewBox="0 0 1549.9 1642.3" style="enable-background:new 0 0 1549.9 1642.3;" xml:space="preserve">
<g>
	<defs>
		<path id="SVGID_1_" d="M1469,919.4c0,6.1,0.3,12.3-0.1,18.4c-0.8,13.7-1.6,27.4-3.1,41c-1.5,13.7-3.8,27.2-5.5,40.8
			c-0.8,6.1-0.9,12.2-1.4,18.3c-0.8,9.8-1.6,19.6-2.7,29.4c-2.3,20.3-5.2,40.5-9.6,60.5c-2.4,11.1-5.1,22.1-7.8,33.1
			c-1.1,4.5-2,9.1-3.4,13.5c-2.1,6.7-4.6,13.3-7,19.9c-4.1,11.3-7.8,22.9-12.6,33.9c-7,15.8-14.5,31.3-22.6,46.6
			c-9.6,18-20.7,35.2-33.2,51.4c-11.7,15.1-23.8,30-37.9,42.9c-11.2,10.2-22.6,20.3-35,29.2c-18.1,13.2-37.1,24.7-57.2,34.4
			c-15.9,7.7-32.3,14.1-49.2,19.3c-3.5,1.1-6.8,3-9.8,5.1c-8,5.7-15.7,11.8-23.8,17.4c-10.8,7.5-21.7,15-33,21.9
			c-14.2,8.7-28.7,17-43.3,25.2c-8.4,4.7-17,9.1-25.7,13.4c-26.3,13-53.4,24.4-81.1,34.2c-28.5,10-57.5,17.6-87.1,23.1
			c-15.7,2.9-31.4,5.5-47.4,6.4c-11.1,0.7-22.2,2.2-33.3,1.9c-20.2-0.5-40.4-1.5-60.4-4.6c-18.6-2.9-36.8-7.2-54.7-12.8
			c-18.4-5.8-36.3-13.3-53-23c-9.3-5.4-18.1-11.5-27.3-17.2c-2.3-1.4-5-2.6-7.6-3.3c-13.5-3.5-27.1-6.5-40.5-10.4
			c-9.8-2.9-19.3-6.6-28.7-10.6c-11.1-4.6-22.1-9.6-33-14.9c-6.8-3.3-13.4-7.1-19.8-11.2c-11.4-7.3-22.8-14.6-33.6-22.7
			c-9.8-7.3-18.9-15.5-28.1-23.7c-7.1-6.3-14.2-12.6-20.6-19.6c-10.3-11.2-20.2-22.7-30-34.3c-11.7-13.8-21.8-28.7-31.2-44.1
			c-15.9-26.2-25.6-54.7-30.9-84.8c-4.2-23.8-4.1-47.8-3.1-71.7c1-24.5,4.8-48.7,9.2-72.9c5.9-32.5,12.1-65,17.6-97.6
			c2.8-16.8,4.6-33.8,6.4-50.8c1.2-12.2,1.9-24.4,2.2-36.6c0.5-18.8-1.9-37.4-5-55.9c-4.4-26.4-12.8-51.5-24.3-75.6
			c-10.2-21.3-22.5-41.4-35.9-60.9c-15.3-22.2-30.4-44.5-45.1-67.1c-11.3-17.4-19.5-36.3-24.1-56.6c-3.4-14.9-4.6-29.9-3-45.3
			c2.4-22.3,9.3-43.1,18.5-63.3c8.9-19.5,19.9-37.8,32-55.4c11.1-16.1,22.2-32.1,34-47.6c9.9-13,20.4-25.5,31.2-37.7
			c13-14.7,26.1-29.4,40.1-43.3c16.2-16,32.9-31.7,51.3-45.2c13.5-9.9,27.2-19.4,40.6-29.4c8-6,15.7-12.4,23.4-18.8
			c15.5-12.8,32.3-23.9,49.3-34.5c11.8-7.4,23.8-14.5,36.1-20.9c11.5-6,23.5-11.2,35.4-16.3c20.7-8.9,41.7-16.7,63.6-22.4
			c16.9-4.4,34-7.9,51.3-10.3c22.2-3.2,44.5-2.4,66.8-1.7c18.3,0.6,36.6,3.2,54.8,5.8c17.3,2.5,34.5,5.7,51.5,9.4
			c14.8,3.3,29.6,7.3,44.1,11.9c16.1,5,32.1,10.5,47.8,16.7c14.3,5.7,28.2,12.4,42.1,18.9c9.4,4.4,18.7,9.1,27.9,14
			c7.7,4.1,15.1,8.7,22.6,13.1c3.8,2.3,7.8,4.4,11.4,6.9c13.4,9.4,26.8,18.8,39.9,28.5c15.1,11.2,30,22.6,44.7,34.2
			c7.6,6,14.7,12.5,22,18.8c2.7,2.3,5.4,4.5,8,6.8c0.8,0.7,1.3,1.7,2,2.6c0.8,1,1.5,2.4,2.6,2.8c3.1,1.2,5.5,2.8,6.4,6.3
			c0.2,0.7,1.3,1.5,2.1,1.6c2.4,0.4,3,2.2,4.2,3.9c2.5,3.6,5.7,6.7,8.6,10c9.2,10.2,18.3,20.5,27.5,30.6c5,5.4,10.2,10.6,15.2,16
			c0.9,0.9,1.6,2,2.1,3.2c2.2,5,5.5,9.2,9.6,12.7c3,2.5,5.1,5.7,7.1,9.1c4.5,7.7,9.9,14.8,14.8,22.3c11.5,17.5,23,35.1,34.5,52.7
			c2.5,3.9,5.3,7.6,7.7,11.6c2,3.3,3.3,7,5.3,10.4c13.7,23.7,26,48,37.2,72.9c9.1,20.2,17.6,40.5,26,61c5,12.4,9.1,25.2,13.7,37.7
			c1.4,3.8,2.7,7.8,4.7,11.3c16.2,27.6,27.8,57,36.1,87.9c7.2,26.6,12.6,53.5,16,80.8C1468.3,878.6,1469.7,899,1469,919.4z"/>
	</defs>
	<clipPath id="SVGID_00000154394724973479365370000009211468991077765306_">
		<use xlink:href="#SVGID_1_"  style="overflow:visible;"/>
	</clipPath>
	<g style="clip-path:url(#SVGID_00000154394724973479365370000009211468991077765306_);">
		
			<image style="overflow:visible;" width="597" height="843" xlink:href="the-stories.png"  transform="matrix(2.0938 0 0 2.0938 190.9997 0)">
		</image>
	</g>
</g>
</svg>
