<?xml version="1.0" encoding="utf-8"?>
<!-- Generator: Adobe Illustrator 26.0.1, SVG Export Plug-In . SVG Version: 6.00 Build 0)  -->
<svg version="1.1" id="Слой_1" xmlns="http://www.w3.org/2000/svg" xmlns:xlink="http://www.w3.org/1999/xlink" x="0px" y="0px"
	 viewBox="0 0 567.2 247" style="enable-background:new 0 0 567.2 247;" xml:space="preserve">
<style type="text/css">
	.st0{fill:#AF5A3A;}
	.st1{fill:#CA8B0C;}
	.st2{fill:#713F13;}
	.st3{fill:#714014;}
</style>
<path class="st0" d="M-37.6,140.4c0-2.4-0.4-4.7-0.8-7c-0.9-4.8-2-9.6-3.6-14.2c-1-3-2.1-5.9-3.5-8.7c-0.5-1.1-0.9-2.2-1.5-3.2
	c-3.2-6.2-6.8-12.2-10.8-17.8c-2.4-3.3-4.8-6.5-7.4-9.6c-1.2-1.5-2.5-2.8-3.7-4.3c-2-2.4-4.2-4.6-6.4-6.9c-0.4-0.4-0.7-0.9-1.1-1.3
	c-0.5-0.5-0.9-1-1.5-1.5c-0.9-0.9-1.9-1.6-2.8-2.5c-2.4-2.4-4.9-4.5-7.5-6.7c-2.4-2.1-5-4-7.6-5.9c-3.2-2.4-6.6-4.6-10.1-6.7
	c-3.8-2.3-7.6-4.3-11.6-6.2c-3-1.4-6.1-2.7-9.2-3.9c-4.2-1.6-8.4-3.1-12.6-4.4c-5.4-1.8-10.9-3.5-16.3-5.3
	c-3.8-1.3-7.5-2.7-11.1-4.3c-2.6-1.1-5.1-2.3-7.5-3.6c-4.5-2.4-8.8-5.1-12.8-8.2c-1.1-0.8-2.1-1.6-3-2.6c-1.1-1.1-2.3-2-3.4-3.1
	c-0.6-0.6-1.1-1.2-1.7-1.9c-0.2-0.3-0.4-0.6-0.7-0.8c-1.7-1.6-3.2-3.5-4.8-5.3c-0.9-1-1.7-2-2.6-3c-1.2-1.4-2.3-2.8-3.5-4.2
	c-1.8-2.1-3.5-4.1-5.3-6.1c-1.5-1.7-3.1-3.4-4.6-5.1c-1.6-1.8-3.1-3.6-4.7-5.4c-0.4-0.4-0.7-0.8-1.1-1.2c-1-1-2-2-2.8-3.1
	c-0.4-0.6-0.9-1-1.4-1.5c-1.4-1.5-2.9-2.8-4.1-4.5c-0.3-0.4-0.8-0.8-1.2-1.2c-2.4-2.4-4.7-4.7-7.1-7.1c-1.1-1.1-2.2-2.3-3.5-3.2
	c-0.3-0.2-0.5-0.5-0.8-0.7c-1.7-1.8-3.6-3.3-5.4-4.9c-1.3-1.2-2.7-2.2-4-3.3c-2.8-2.3-5.7-4.4-8.8-6.4c-2.8-1.9-5.7-3.8-8.8-5.3
	c-1.2-0.6-2.4-1.2-3.5-1.8c-0.9-0.4-1.7-0.9-2.4-1.6c-0.7-0.6-1.5-1-2.3-1.4c-3.2-1.4-6.4-2.7-9.7-3.9c-1.4-0.5-2.9-0.9-4.4-1.3
	c-3-0.8-6.1-1.4-9.2-2c-5.4-1.1-10.8-2.1-16.2-3.1c-2.5-0.5-4.9-0.9-7.4-1.2c-1.7-0.2-3.5-0.3-5.2-0.3c-0.3,0-0.7,0-1-0.1
	c-2.3-0.5-4.6-0.3-6.9-0.4c-0.6,0-1.1,0-1.7,0c-0.4-0.1-0.8-0.2-1.2-0.4c-3.9,0-7.8,0-11.7,0c-0.5,0.3-1.1,0.3-1.6,0.3
	c-0.9,0-1.8,0-2.7,0c-1,0.1-1.9,0.2-2.9,0.2c-0.3,0-0.6,0.1-0.8,0.1c-1.9-0.1-3.7,0.4-5.6,0.5c-0.9,0.1-1.8,0.3-2.7,0.4
	c-6.8,1-13.4,2.5-20,4.4c-5.8,1.6-11.4,3.8-16.9,6.1c-3.7,1.6-7.2,3.3-10.7,5.2c-3.1,1.6-6,3.5-9,5.3c-2.8,1.7-5.5,3.6-8.1,5.5
	c-2.3,1.6-4.5,3.3-6.7,5c-2,1.5-3.9,3.1-5.8,4.7c-1.6,1.3-3.1,2.7-4.7,4.2c-1,0.9-1.9,1.9-3,2.6c-0.4,0.3-0.8,0.7-1.2,1.1
	c-1.4,1.4-2.9,2.8-4.3,4.3c-1.1,1.1-2.3,2.2-3.2,3.5c-0.3,0.4-0.7,0.7-1,1.1c-1.1,1.2-2.2,2.3-3.2,3.6c-1.1,1.3-2.2,2.5-3.3,3.8
	c-0.6,0.8-1.3,1.6-2,2.4c-2,2.5-4,5-5.8,7.6c-1.9,2.8-4,5.6-5.8,8.4c-2.7,4-5.1,8.1-7.5,12.3c-2.9,5.1-5.4,10.4-8,15.6
	c-1.7,3.6-3.2,7.4-4.7,11.2c-1.3,3.4-2.6,6.9-3.7,10.4c-2.3,7-4.1,14.2-5.5,21.4c-0.8,4.1-1.4,8.2-2,12.4c-0.3,1.9-0.4,3.9-0.5,5.8
	c0,0.3,0,0.7-0.1,1c-0.3,1.1-0.3,2.2-0.3,3.3c0,1.3-0.1,2.5-0.3,3.7c-0.2,1.1-0.1,2.2-0.1,3.3c0,0.7,0,1.4-0.4,2c0,2.6,0,5.3,0,7.9
	c0.4,0.6,0.4,1.2,0.4,1.8c0,1.5,0,2.9,0.3,4.4c0.1,0.5,0.1,1,0.1,1.5c0,1.6,0,3.2,0.4,4.8c0,0.1,0,0.3,0,0.4c0,2.5,0.5,5,0.8,7.5
	c0.3,3,0.8,5.9,1.3,8.9c0.6,3.3,1.2,6.6,1.9,9.8c1.1,4.7,2.2,9.4,3.6,13.9c0.9,2.9,1.8,5.9,2.8,8.8c1.5,4.2,3,8.4,4.8,12.5
	c1.2,2.7,2.3,5.5,3.6,8.2c1.7,3.6,3.4,7.2,5.4,10.6c0.1,0.2,0.3,0.5,0.4,0.7c3.7,7,7.9,13.6,12.4,20.1c2.5,3.5,5.1,7,7.8,10.3
	c1.9,2.3,3.8,4.6,5.8,6.9c2.1,2.4,4.4,4.7,6.6,7c0.3,0.4,0.7,0.7,1,1.1c0.4,0.6,0.9,1,1.5,1.5c0.7,0.6,1.4,1.3,2.1,2
	c1.1,1,2.1,2.1,3.1,3.1c0.6,0.6,1.3,1.1,1.9,1.7c0.3,0.3,0.7,0.5,1,0.8c2.2,2.1,4.6,4,7,5.9c1.6,1.3,3.2,2.5,4.8,3.7
	c5.3,3.9,10.7,7.5,16.4,10.8c5,2.9,10.2,5.5,15.4,7.9c4,1.9,8.1,3.4,12.2,4.9c6.5,2.3,13.1,4.3,19.7,6.2c3.2,0.9,6.4,1.8,9.7,2.6
	c6.5,1.6,13,3,19.6,4c2.4,0.4,4.8,0.7,7.2,1.1c0.5,0.1,1,0.1,1.5,0.1c1.5,0.2,2.9,0.3,4.3,0.5c0.2,0,0.4,0.2,0.6,0.3
	c6.8,0,13.7,0,20.5,0c1.1-0.6,2.3-0.6,3.4-0.7c5.1-0.7,10.1-1.8,15.1-3.3c4.9-1.6,9.6-3.7,14.1-6.2c2.8-1.5,5.3-3.3,7.8-5.2
	c2.3-1.7,4.2-3.8,6.3-5.8c2.8-2.8,5.4-5.9,7.8-9c2-2.4,3.9-4.9,5.9-7.3c1.8-2.3,3.6-4.6,5.5-6.8c1.6-2,3.3-4,5.1-5.8
	c1.6-1.6,3.2-3.3,4.9-4.9c3.5-3.4,7.4-6.4,11.6-8.8c4.8-2.7,10-4.5,15.5-5.4c1.5-0.2,3-0.5,4.6-0.5c0.2,0,0.4,0,0.6,0
	c2-0.4,4-0.3,6-0.3c0.9,0,1.8,0.1,2.7,0.2c0.4,0,0.8,0.1,1.2,0.1c6,0.2,11.9,1.6,17.6,3.4c4.5,1.4,8.9,3.3,13.1,5.4
	c1.7,0.9,3.5,1.7,5.2,2.6c2.3,1.2,4.6,2.5,7,3.8c0.2,0.1,0.4,0.2,0.5,0.3c3.8,2,7.5,4,11.3,5.9c3.9,1.9,7.8,3.6,11.9,5
	s8.3,2.4,12.6,3c3.5,0.5,6.9,0.3,10.4,0.3c2.5-0.4,5-0.6,7.4-1.3c3.1-0.9,6.1-1.9,9-3.4c3-1.6,5.9-3.4,8.6-5.5
	c3.1-2.4,5.8-5.2,8.4-8.1c1.3-1.4,2.5-3,3.7-4.5c3.3-4.5,6.3-9.2,9.1-14c2.1-3.6,3.9-7.4,5.7-11.2c1.4-2.9,2.5-5.9,3.7-8.9
	c0.8-2,1.5-4,2.2-6.1c2-5.9,3.6-11.9,4.7-18c0.5-2.7,0.9-5.3,1.3-8c0.2-1,0.1-2.1,0.1-3.1c0-0.7,0-1.4,0.4-2c0-7.2,0-14.5,0-21.7
	C-37.6,141.5-37.6,141-37.6,140.4z M-364.2,108c-0.1-0.5-0.1-1-0.1-1.5C-364.3,107-364.3,107.5-364.2,108z M-363.8,110.2
	c-0.1-0.5-0.3-1-0.4-1.5C-364,109.2-363.9,109.7-363.8,110.2z"/>
<g>
	<g>
		<g>
			<path class="st1" d="M255,143.5c-0.7,0-1.3-0.3-1.7-0.7c-0.7-0.7-0.7-1.1-0.7-1.7c0-0.7,0.3-1.3,0.7-1.7c0.7-0.7,1.1-0.7,1.7-0.7
				c1.6,0,2.6,1.1,2.6,2.6l0,0C257.7,142.5,256.6,143.5,255,143.5z"/>
			<path class="st1" d="M415.6,145.9c-1.6,0-2.6-1.1-2.6-2.6c0-1.4,1.1-2.6,2.6-2.6c0.7,0,1.3,0.3,1.7,0.7c0.9,0.9,0.9,2.6,0,3.4
				C416.9,145.7,416,145.9,415.6,145.9z"/>
			<path class="st1" d="M428.1,145.9c-1.6,0-2.6-1.1-2.6-2.6c0-1.4,1.1-2.6,2.6-2.6c1.4,0,2.6,1.1,2.6,2.6c0,0.7-0.4,1.3-0.7,1.7
				C429.5,145.7,428.8,145.9,428.1,145.9z"/>
			<path class="st1" d="M485.3,144.5c-1.6,0-2.6-1.1-2.6-2.6l0,0c0-0.7,0.3-1.3,0.7-1.7c0.7-0.7,1.1-0.7,1.7-0.7
				c0.7,0,1.3,0.3,1.7,0.7c0.4,0.4,0.7,1.1,0.7,1.7s-0.3,1.3-0.7,1.7C486.9,144.2,486.1,144.5,485.3,144.5z"/>
			<path class="st1" d="M524.5,143.5c-0.7,0-1.3-0.3-1.7-0.7s-0.7-1.1-0.7-1.7c0-0.7,0.3-1.3,0.7-1.7c0.7-0.7,1.1-0.7,1.7-0.7
				c1.6,0,2.6,1.1,2.6,2.6l0,0C526.9,142.5,525.7,143.5,524.5,143.5z"/>
			<g>
				<path class="st1" d="M255,152.3c-0.7,0-1.3-0.3-1.7-0.7c-0.9-0.9-0.9-2.6,0-3.4c0.7-0.7,1.1-0.7,1.7-0.7
					c1.6,0.3,2.4,1.6,2.1,2.8C257.3,151.1,256.4,152,255,152.3L255,152.3z"/>
				<path class="st1" d="M524.5,152.3c-0.7,0-1.3-0.3-1.7-0.7c-0.9-0.9-0.9-2.6,0-3.4c0.7-0.7,1.1-0.7,1.7-0.7
					c1.6,0.3,2.4,1.6,2.1,2.8C526.6,151.1,525.7,152,524.5,152.3L524.5,152.3z"/>
				<g>
					<path class="st2" d="M263.1,184.7c-5.2,0-10.3-1.3-15-4v3.4h-3.7v-6.1c-0.7-0.7-1.1-1.1-1.7-1.6l-0.4,2.8l-3.7-0.4l0.9-8.2
						l8.2-0.9l0.4,3.7l-3.7,0.4c0.7,0.7,1.1,1.1,1.7,1.7l6.1-1.3l0.7,3.7l-2.6,0.7c4,1.7,8.1,2.8,12.2,2.8c3.3,0,6.7-0.7,9.8-2
						v-17.4c-2-0.7-4-0.9-5.8-1.1c-0.4,0.7-0.7,1.3-1.3,1.7c-1.1,1.1-2.6,1.7-4.1,1.7c-1.7,0-3-0.7-4.1-1.7
						c-0.9-0.7-1.6-1.7-1.7-2.8c-4-0.3-7.4-1.3-10.6-2.8c-3.7-1.7-6.1-5.7-5.8-9.8c0-3.3,1.3-6.2,3.4-8.5c2.8-2.8,6.7-5,10.8-5.8
						c2.1-0.7,4.4-0.7,6.5-0.7c5.2,0,10.3,1.3,15,4v-3.4h3.7v6.1c0.7,0.7,1.1,1.1,1.7,1.7l0.4-2.8l3.7,0.4l-0.9,8.2l-8.2,0.9
						l-0.4-3.7l3.7-0.4c-0.7-0.7-1.1-1.1-1.7-1.7l-6.1,1.3l-0.7-3.7l2.6-0.7c-4-1.7-8.1-2.8-12.2-2.8c-3.3,0-6.7,0.7-9.8,2v17.6
						c2,0.7,4,0.9,5.8,1.1c0.4-0.7,0.7-1.3,1.3-1.7c1.1-1.1,2.6-1.7,4.1-1.7c1.6,0,3,0.7,4.1,1.7c0.7,0.7,1.3,1.7,1.7,2.8
						c7.7,0.7,12.6,2.8,15,6.7c1.1,1.7,1.7,4,1.6,6.1c0,3.3-1.3,6.2-3.4,8.5c-2.8,2.8-6.7,5-10.8,5.8
						C267.2,184.6,265.2,184.7,263.1,184.7z M246.7,153.3v-13.9c-2.4,1.7-3.7,4.5-4,7.4C243,149.6,244.4,152.3,246.7,153.3
						L246.7,153.3z M261.5,160.5c0.7,0,1.1-0.3,1.7-0.7c0.9-0.9,0.9-2.1,0-3c-0.4-0.4-0.9-0.7-1.7-0.7c-0.7,0-1.1,0.3-1.7,0.7
						c-0.9,0.9-0.9,2.1,0,3C260.3,160.2,261,160.5,261.5,160.5L261.5,160.5z M276.6,176.9c2.4-1.7,3.7-4.5,4-7.4
						c0.3-2.8-1.3-5.4-4-6.7V176.9z"/>
					<path class="st2" d="M321.5,142.2h-20v-3.7h8.2v-3.3h-18.3v3.4h-3.7v-7.1h47.3v7.1h-3.7v-3.4h-18.3v3.3h8.2v3.7H321.5z
						 M318.4,184.7l-5-5v5h-3.7v-5l-5,5l-2.6-2.6l7.4-7.4v-26.1h-8.2V145h20v3.7h-8.2v25.8l7.4,7.4L318.4,184.7z"/>
					<path class="st2" d="M365.3,184.7c-3.7,0-7.1-0.7-10.3-2c-6.2-2.8-11.5-7.8-14-14c-2.8-6.5-2.8-13.9,0-20.4
						c1.3-3,3.3-6.1,5.7-8.2c2.4-2.4,5.2-4.4,8.2-5.7c6.5-2.8,13.9-2.8,20.4,0c6.2,2.8,11.5,7.8,14,14c2.8,6.5,2.8,13.9,0,20.4
						c-2.8,6.2-7.8,11.5-14,14C372.4,184.2,369,184.7,365.3,184.7z M350.6,175.4l13-9.4v-16.3l-13-9.4c-4.5,4-7.4,9.4-8.1,15.4h6.9
						l-2.8-3.3l2.8-2.4l6.1,7.4l-6.1,7.4l-2.8-2.4l2.8-3.3h-6.9C343.2,166.2,346,171.7,350.6,175.4L350.6,175.4z M365.3,147
						l11.8-8.2c-0.9-0.7-1.7-0.9-2.6-1.3l-9.4,6.5l-9.4-6.5c-0.9,0.4-1.7,0.7-2.6,1.3L365.3,147z M374.5,179.1
						c0.9-0.4,1.7-0.7,2.6-1.3l-11.8-8.2l-11.8,8.2c0.7,0.7,1.7,0.9,2.6,1.3l9.4-6.5L374.5,179.1z M365.3,139.4l5-3.4
						c-3.3-0.7-6.7-0.7-9.9,0L365.3,139.4z M365.3,181c1.7,0,3.3-0.3,5-0.7l-5-3.4l-5,3.4C362,180.9,363.7,181,365.3,181z
						 M380.2,175.4c4.5-4,7.4-9.4,7.8-15.4H381l2.8,3.3l-2.8,2.4l-6.1-7.4l6.1-7.4l2.8,2.4l-2.8,3.3h6.9c-0.7-6.1-3.3-11.8-7.8-15.4
						l-13,9.4v16.3L380.2,175.4z"/>
					<path class="st2" d="M440.6,184.7h-10.5v-13.9l-23.4-10.2v14l7.4,7.4l-2.6,2.6l-5-5v5h-3.7v-5l-5,5l-2.6-2.6l7.4-7.4V144
						l-4.8,2.1l-1.6-3.3l6.1-2.8v-8.2h3.7v6.7l15-6.7c6.2,2.8,12.6,5.4,18.9,8.2v18.9l-14.3,6.1l7.4,3.3v6.5h6.9v3.7h-7.1v2.6h6.9
						L440.6,184.7z M406.4,153.3l3.7-3.7l-3.7-3.7V153.3z M419.9,162.5v-26.1l-12.2,5.2l7.7,7.7l-7.7,7.7L419.9,162.5z M423.5,162.5
						l12.2-5.2l-7.7-7.7l7.7-7.7l-12.2-5.2V162.5z M436.9,153.3v-7.1l-3.7,3.7L436.9,153.3z"/>
					<path class="st2" d="M460.3,184.7l-5-5v5h-3.7v-5l-5,5l-2.4-2.6l7.4-7.4v-32.7l-7.4-7.4l2.6-2.6l5,5v-5h3.7v5l5-5l2.6,2.6
						c-2.6,2.6-5,5-7.4,7.4v32.7l7.4,7.4L460.3,184.7z"/>
					<path class="st2" d="M504.5,184.7h-38.1V181h10.8l-9.9-4.4v-37.1l9.9-4.4h-10.6v-3.7h38.1v3.7h-9.5l8.9,4l-1.6,3.3l-16-7.1
						l-15,6.7v8.2h14.7v3.7h-14.7v2.6h19.7l3.7-4.5l2.8,2.4l-3.3,4l3.3,4l-2.8,2.4l-3.7-4.5h-19.7v2.6h14.7v3.7h-14.7v8.2l15,6.7
						l16-7.1l1.6,3.3l-8.9,4h9.8v3.4H504.5z"/>
					<path class="st2" d="M532.3,184.7c-5.2,0-10.3-1.3-15-4v3.4h-3.7v-6.1c-0.7-0.7-1.1-1.1-1.7-1.6l-0.4,2.8l-3.7-0.4l0.9-8.2
						l8.2-0.9l0.4,3.7l-3.7,0.4c0.7,0.7,1.1,1.1,1.7,1.7l6.1-1.3l0.7,3.7l-2.6,0.7c4,1.7,8.1,2.8,12.2,2.8c3.3,0,6.7-0.7,9.8-2
						v-17.3c-2-0.7-4-0.9-5.8-1.1c-0.4,0.7-0.7,1.3-1.3,1.7c-1.1,1.1-2.6,1.7-4.1,1.7c-1.6,0-3-0.7-4.1-1.7
						c-0.7-0.7-1.3-1.7-1.7-2.8c-4-0.3-7.4-1.3-10.6-2.8c-3.7-1.7-6.1-5.7-5.8-9.8c0-3.3,1.3-6.2,3.4-8.5c2.8-2.8,6.7-5,10.8-5.8
						c7.1-1.7,15-0.7,21.4,3v-3.4h3.7v6.1c0.7,0.7,1.1,1.1,1.7,1.7l0.4-2.8l3.7,0.4l-0.9,8.2l-8.2,0.9l-0.6-3.4l3.7-0.4
						c-0.7-0.7-1.1-1.1-1.7-1.7l-6.1,1.3l-0.7-3.7l2.6-0.7c-4-1.7-8.1-2.8-12.2-2.8c-3.3,0-6.7,0.7-9.8,2v17.4c2,0.7,4,0.9,5.8,1.1
						c0.4-0.7,0.7-1.3,1.3-1.7c1.1-1.1,2.6-1.7,4.1-1.7c1.6,0,3,0.7,4.1,1.7c0.9,0.7,1.6,1.7,1.7,2.8c7.7,0.7,12.6,2.8,15,6.7
						c1.1,1.7,1.7,4,1.6,6.1c0,3.3-1.3,6.2-3.4,8.5c-2.8,2.8-6.7,5-10.8,5.8C536.8,184.6,534.7,184.7,532.3,184.7z M516,153.3v-13.9
						c-2.4,1.7-3.7,4.5-4,7.4C512.3,149.6,513.5,152.3,516,153.3L516,153.3z M531,160.5c0.7,0,1.1-0.3,1.7-0.7c0.9-0.9,0.9-2.1,0-3
						c-0.4-0.4-0.9-0.7-1.7-0.7c-0.7,0-1.1,0.3-1.7,0.7c-0.9,0.9-0.9,2.1,0,3C529.8,160.2,530.3,160.5,531,160.5L531,160.5z
						 M545.7,176.9c2.4-1.7,3.7-4.5,4-7.4c0.3-2.8-1.3-5.4-4-6.7V176.9z"/>
					<path class="st1" d="M267.9,169.3c-1.6-0.3-2.4-1.6-2.1-2.8c0.3-1.1,1.1-2,2.1-2.1c1.6,0.3,2.4,1.6,2.1,2.8
						C270.1,168.3,268.9,169.1,267.9,169.3z"/>
					<path class="st1" d="M267.9,177.8c-0.7,0-1.3-0.3-1.7-0.7c-0.9-0.9-0.9-2.6,0-3.4c0.7-0.7,1.1-0.7,1.7-0.7
						c1.6,0,2.6,1.1,2.6,2.6c0,0.7-0.3,1.3-0.7,1.7C269.2,177.6,268.8,177.8,267.9,177.8z"/>
					<path class="st1" d="M304.4,155.7c-1.6,0-2.6-1.1-2.6-2.6l0,0c0-1.6,1.1-2.6,2.6-2.6l0,0c1.6,0,2.6,1.1,2.6,2.6l0,0
						C306.5,154.5,305.3,155.7,304.4,155.7z"/>
					<path class="st1" d="M304.4,163.3c-1.6,0.3-2.6-0.9-2.8-2.1c-0.3-1.6,0.9-2.6,2.1-2.8c0.3,0,0.4,0,0.7,0
						c1.6-0.3,2.6,0.9,2.8,2.1c0.3,1.6-0.9,2.6-2.1,2.8C304.5,163.3,304.4,163.3,304.4,163.3z"/>
					<path class="st1" d="M318.8,155.7c-0.7,0-1.3-0.3-1.7-0.7c-0.7-0.4-0.7-1.1-0.7-1.7c0-1.6,1.1-2.6,2.6-2.6s2.6,1.1,2.6,2.6
						C321.5,154.5,320.4,155.7,318.8,155.7z"/>
					<path class="st1" d="M318.8,163.3c-1.6-0.3-2.4-1.6-2.1-2.8c0.3-1.1,1.1-2,2.1-2.1c1.6,0.3,2.4,1.6,2.1,2.8
						C321.1,162.5,320.1,163.3,318.8,163.3z"/>
					<path class="st1" d="M359.6,160.9c-0.7,0-1.3-0.3-1.7-0.7c-0.9-0.9-0.9-2.6,0-3.4c0.9-0.9,2.6-0.9,3.4,0s0.9,2.6,0,3.4
						C360.9,160.5,360.2,160.9,359.6,160.9z"/>
					<path class="st1" d="M371.1,160.9c-0.7,0-1.3-0.3-1.7-0.7c-0.9-0.9-0.9-2.6,0-3.4c0.9-0.9,2.6-0.9,3.7,0c0.9,0.9,0.9,2.6,0,3.4
						C372.4,160.5,371.8,160.9,371.1,160.9z"/>
					<path class="st1" d="M415.6,158.1c-1.6,0-2.6-1.1-2.6-2.6c0-0.7,0.3-1.3,0.7-1.7c0.9-0.9,2.6-0.9,3.7,0
						c0.7,0.7,0.7,1.1,0.7,1.7s-0.3,1.3-0.7,1.7C416.9,157.8,416,158.1,415.6,158.1z"/>
					<path class="st1" d="M428.1,158.1c-1.6,0-2.6-1.1-2.6-2.6l0,0c0-0.7,0.3-1.3,0.7-1.7c0.9-0.9,2.6-0.9,3.7,0
						c0.7,0.7,0.7,1.1,0.7,1.7C430.5,156.9,429.5,158.1,428.1,158.1L428.1,158.1z"/>
					<path class="st1" d="M485.3,177.2c-0.7,0-1.3-0.3-1.7-0.7c-0.9-0.9-0.9-2.6,0-3.7c0.7-0.7,1.1-0.7,1.7-0.7
						c0.7,0,1.3,0.3,1.7,0.7c0.9,0.9,0.9,2.6,0,3.4C486.9,176.9,486.1,177.2,485.3,177.2z"/>
					<path class="st1" d="M537.2,169.3c-1.6-0.3-2.4-1.6-2.1-2.8c0.3-1.1,1.1-2,2.1-2.1c1.6,0.3,2.4,1.6,2.1,2.8
						C539.2,168.3,538.4,169.1,537.2,169.3z"/>
					<path class="st1" d="M537.2,177.8c-0.7,0-1.3-0.3-1.7-0.7c-0.9-0.9-0.9-2.6,0-3.4c0.7-0.7,1.1-0.7,1.7-0.7s1.3,0.3,1.7,0.7
						c0.9,0.9,0.9,2.6,0,3.4C538.5,177.6,537.9,177.8,537.2,177.8z"/>
				</g>
			</g>
		</g>
		<g>
			<path class="st2" d="M222.1,114.8V90.2h-6.2l-8.9,8.9l-9.1-8.9h-6.2v24.7h-9.1v-3.7h5.4v-2.4h-5.4v-3.7h5.4V90h-5v-3.7h5V71.5
				h-5.4v-3.7h5.4v-2.4h-5.4v-3.7h9.1v24.7h6.2l8.9-8.9l8.9,8.9h6.2V61.7h9.1v3.7h-5.4v2.4h5.4v3.7h-5.4v15h5v3.7h-5v15h5.4v3.7
				h-5.4v2.4h5.4v3.7h-8.9V114.8z M207,94.2l5.7-5.7l-5.7-5.7l-5.7,5.7L207,94.2z"/>
			<path class="st2" d="M272.7,114.8h-38v-3.7h10.8l-9.9-4.4V69.6l9.9-4.4h-10.6v-3.7h38v3.7h-9.5l8.9,4l-1.6,3.3l-16-7.1l-15,6.7
				v8.2h14.7V84h-14.7v2.6h19.7l3.7-4.5l2.8,2.4l-3.3,4l3.3,4l-2.8,2.4l-3.7-4.5h-19.7v2.4h14.7v3.7h-14.7v8.2l15,6.7l16-7.1
				l1.6,3.3l-8.9,4h9.8L272.7,114.8z"/>
			<path class="st2" d="M321.5,114.8h-10.6V101l-23.4-10.2v14l7.4,7.4l-2.6,2.6l-5-5v5h-3.7v-5l-5,5l-2.6-2.6l7.4-7.4V74.3l-4.8,2.1
				l-1.6-3.3l6.2-2.8v-8.2h3.7v6.7l15-6.7c6.2,2.8,12.6,5.4,18.9,8.2v19.1l-14.3,6.1l7.4,3.3v6.5h6.9v3.7h-7.1v2.6h6.9L321.5,114.8z
				 M287.6,83.2l3.7-3.7l-3.7-3.4V83.2z M301.1,92.6V66.5l-12.2,5.2l7.7,7.7l-7.7,7.7L301.1,92.6z M304.6,92.6l12.2-5.2l-7.7-7.7
				l7.7-7.7l-12.2-5.2V92.6z M317.8,83.2v-7.1l-3.7,3.7L317.8,83.2z"/>
			<path class="st2" d="M341.2,114.8l-5-5v5h-3.7v-5l-5,5l-2.6-2.6l7.4-7.4V72.2l-7.4-7.4l2.6-2.6l5,5v-5h3.7v5l5-5l2.6,2.6
				c-2.6,2.6-5,5-7.4,7.4v32.7l7.4,7.4L341.2,114.8z"/>
			<path class="st2" d="M380.9,72.5h-20v-3.7h8.2v-3.3h-18.3v3.4h-3.4v-7.1h47.3v7.1h-3.7v-3.4h-18.3v3.3h8.2L380.9,72.5z
				 M377.9,114.8l-5-5v5h-3.7v-5l-5,5l-2.6-2.6l7.4-7.4V78.8h-8.2v-3.7h20v3.7h-8.2v26.1l7.4,7.4L377.9,114.8z"/>
			<path class="st2" d="M446.7,114.8l-15.2-30.3l-2.8,5.2l9.1,18h-22.1l9.1-18l-2.8-5l-15.2,30.3h-8.2v-3.7h6.1l1.7-3.3h-5v-3.7h6.7
				L423.8,73h-7.7v-3.4h7.7l-2.8-5.8l3.3-1.7l2.6,5l2.6-5l3.3,1.7l-2.8,5.8h7.7v3.7h-7.7l15.9,31.5h6.7v3.7h-5l1.7,3.3h6.1v3.7
				L446.7,114.8z M431.9,104.1l-5-10.3l-5.2,10.3H431.9z M426.7,85.7l2.6-5.2l-2.8-5.2l-2.6,5.2L426.7,85.7z"/>
			<path class="st2" d="M485.1,114.8c-3.4,0-7.1-0.7-10.3-2c-3-1.3-6.1-3.3-8.2-5.7c-2.4-2.4-4.4-5.2-5.7-8.2
				c-2.8-6.5-2.8-13.9,0-20.4c2.8-6.2,7.8-11.5,14-14c3.3-1.6,6.7-2.1,10.3-2c5,0,9.5,1.6,13.9,4c2.4,1.3,4.5,3,6.1,5.2
				c0.7,0.9,1.1,2.1,1.1,3.3c0,3.3-2.6,5.8-5.8,5.8s-5.8-2.6-5.8-5.8l0,0c0-2.1,1.3-4.1,3-5c-3.7-2.6-8.1-4-12.6-4
				c-3,0-6.1,0.7-8.9,1.7c-2.8,1.3-5.2,2.8-7.1,5c-2.1,2-4,4.5-5,7.1c-1.3,2.8-1.7,5.8-1.7,8.9c0,1.6,0.3,2.8,0.4,4.4h48.3
				c-0.7,3.3-1.7,6.2-3,9.4c-1.7,2.8-4,5.2-6.5,7.1c-2.4,1.7-5,3.3-7.7,4.1C490.9,114.4,488,114.8,485.1,114.8z M501.9,103.8
				c2-2.1,3.7-4.8,4.5-7.4h-42.9c1.1,2.8,2.6,5.2,4.5,7.4H501.9z M485.1,111.2c4.5,0,8.9-1.3,12.6-3.7h-25.1
				C476.1,110.2,480.4,111.2,485.1,111.2z M500.2,76.6c0.7,0,1.1-0.3,1.6-0.7c0.4-0.4,0.7-0.9,0.7-1.6s-0.3-1.1-0.7-1.6
				s-0.9-0.7-1.6-0.7c-1.1,0-2.1,0.9-2.1,2.1C498.2,75.7,499.1,76.6,500.2,76.6L500.2,76.6z"/>
			<path class="st2" d="M552.7,114.8h-38.1v-3.7h10.8l-9.9-4.4V69.6l9.9-4.4h-10.6v-3.7h38.1v3.7h-9.5l8.9,4l-1.6,3.3l-16-7.1
				l-15,6.7v8.2h14.7V84h-14.7v2.6h20l3.7-4.5l2.8,2.4l-3.3,4l3.3,4l-2.8,2.4l-3.7-4.8h-20v2.6h14.7v3.7h-14.7v8.2l15,6.7l16-7.1
				l1.6,3.3l-8.9,4h9.8L552.7,114.8z"/>
			<path class="st1" d="M198.8,80.4c-1.6,0-2.6-1.1-2.6-2.6c0-1.4,1.1-2.6,2.6-2.6c1.6,0,2.6,1.1,2.6,2.6
				C201.2,79.4,200,80.4,198.8,80.4z"/>
			<path class="st1" d="M198.8,101.2c-1.6,0-2.6-1.1-2.6-2.6c0-1.4,1.1-2.6,2.6-2.6c1.6,0,2.6,1.1,2.6,2.6
				C201.2,100.1,200,101.2,198.8,101.2z"/>
			<path class="st1" d="M207,75.4c-1.6,0-2.6-1.1-2.4-2.6c0-1.6,1.1-2.6,2.6-2.4c0.7,0,1.3,0.3,1.7,0.7c0.9,0.9,0.9,2.6,0,3.4
				C208.1,75.2,207.4,75.7,207,75.4z"/>
			<path class="st1" d="M207,90.9c-0.7,0-1.3-0.3-1.7-0.7c-0.4-0.4-0.7-1.1-0.7-1.7c0-1.6,1.1-2.6,2.6-2.6c0.7,0,1.3,0.3,1.7,0.7
				c0.7,0.7,0.7,1.1,0.7,1.7c0,0.7-0.3,1.3-0.7,1.7C208.1,90.6,207.4,91,207,90.9z"/>
			<path class="st1" d="M207,106.2c-1.6,0-2.6-1.1-2.6-2.6c0-1.6,1.1-2.6,2.6-2.6c0.7,0,1.3,0.3,1.7,0.7c0.9,0.9,0.9,2.6,0,3.4
				C208.1,106.1,207.4,106.2,207,106.2z"/>
			<path class="st1" d="M215.1,80.4c-1.6,0-2.6-1.1-2.6-2.6c0-1.4,1.1-2.6,2.4-2.6c0.7,0,1.3,0.3,1.7,0.7c0.7,0.4,0.7,1.1,0.7,1.7
				C217.6,79.4,216.5,80.4,215.1,80.4z"/>
			<path class="st1" d="M215.1,101.2c-1.6,0-2.6-1.1-2.6-2.6c0-1.4,1.1-2.6,2.6-2.6c1.6,0,2.6,1.1,2.6,2.6c0,0.7-0.3,1.3-0.7,1.7
				C216.3,101.1,215.9,101.2,215.1,101.2z"/>
			<path class="st1" d="M253.9,74.6c-0.7,0-1.3-0.3-1.7-0.7c-0.9-0.9-0.9-2.6,0-3.7c0.9-0.9,2.6-0.9,3.7,0c0.9,0.9,0.9,2.6,0,3.7
				C255.2,74.3,254.5,74.6,253.9,74.6z"/>
			<path class="st1" d="M253.9,107.3c-1.6,0-2.6-1.1-2.6-2.6l0,0c0-0.7,0.3-1.3,0.7-1.7c0.9-0.9,2.6-0.9,3.7,0
				c0.9,0.9,0.9,2.6,0,3.4C255.2,107.1,254.5,107.3,253.9,107.3z"/>
			<path class="st1" d="M296.6,76.2c-0.7,0-1.3-0.3-1.7-0.7c-0.9-0.9-0.9-2.6,0-3.4c0.9-0.9,2.6-0.9,3.7,0c0.9,0.9,0.9,2.6,0,3.4
				C297.8,75.9,297,76.2,296.6,76.2z"/>
			<path class="st1" d="M296.6,88.2c-0.7,0-1.3-0.3-1.7-0.7c-0.7-0.7-0.7-1.1-0.7-1.7s0.3-1.3,0.7-1.7c0.9-0.9,2.6-0.9,3.7,0
				c0.7,0.7,0.7,1.1,0.7,1.7C299,87.2,297.8,88.2,296.6,88.2L296.6,88.2z"/>
			<path class="st1" d="M308.9,76.2c-1.6,0.3-2.6-0.9-2.8-2.1c-0.3-1.6,0.9-2.6,2.1-2.8c0.3,0,0.4,0,0.7,0c0.7,0,1.3,0.3,1.7,0.7
				c0.9,0.9,0.9,2.6,0,3.4C310.2,75.9,309.7,76.2,308.9,76.2z"/>
			<path class="st1" d="M308.9,88.2c-1.6,0-2.6-1.1-2.6-2.6l0,0c0-0.7,0.3-1.3,0.7-1.7c0.4-0.4,1.1-0.7,1.7-0.7
				c0.7,0,1.3,0.3,1.7,0.7c0.7,0.7,0.7,1.1,0.7,1.7c0,0.7-0.3,1.3-0.7,1.7C310.2,88.1,309.7,88.2,308.9,88.2z"/>
			<path class="st1" d="M363.7,85.8c-0.7,0-1.3-0.3-1.7-0.7c-0.9-0.9-0.9-2.6,0-3.4c0.9-0.9,2.6-0.9,3.4,0s0.9,2.6,0,3.4
				C365,85.7,364.2,85.8,363.7,85.8z"/>
			<path class="st1" d="M363.7,93.4c-0.7,0-1.3-0.3-1.7-0.7c-0.9-0.9-0.9-2.6,0-3.4c0.9-0.9,2.6-0.9,3.4,0s0.9,2.6,0,3.4
				C365,93.4,364.2,93.4,363.7,93.4z"/>
			<path class="st1" d="M378.5,85.8c-0.7,0-1.3-0.3-1.7-0.7c-0.9-0.9-0.9-2.6,0-3.4c0.9-0.9,2.6-0.9,3.4,0s0.9,2.6,0,3.4
				C379.8,85.7,379.2,85.8,378.5,85.8z"/>
			<path class="st1" d="M378.5,93.4c-0.7,0-1.3-0.3-1.7-0.7c-0.9-0.9-0.9-2.6,0-3.4c0.9-0.9,2.6-0.9,3.4,0s0.9,2.6,0,3.4
				C379.8,93.4,379.2,93.4,378.5,93.4z"/>
			<path class="st1" d="M418.4,114.8c-0.7,0-1.3-0.3-1.7-0.7c-0.9-0.9-0.9-2.6,0-3.4c0.9-0.9,2.6-0.9,3.4,0s0.9,2.6,0,3.4
				C419.7,114.4,419,114.8,418.4,114.8z"/>
			<path class="st1" d="M426.7,114.8c-0.7,0-1.3-0.3-1.7-0.7c-0.9-0.9-0.9-2.6,0-3.4c0.7-0.7,1.1-0.7,1.7-0.7
				c1.6,0.3,2.4,1.6,2.1,2.8C428.7,113.9,427.8,114.7,426.7,114.8L426.7,114.8z"/>
			<path class="st1" d="M434.9,114.8c-0.7,0-1.3-0.3-1.7-0.7c-0.9-0.9-0.9-2.6,0-3.4s2.6-0.9,3.4,0s0.9,2.6,0,3.4
				C436.2,114.4,435.3,114.8,434.9,114.8z"/>
			<polygon class="st1" points="490.2,91 484.8,86.8 479.4,91 473.9,86.8 469.8,90.2 467.5,87.2 473.9,82 479.4,86.2 484.8,82 
				490.2,86.2 495.4,82 501.9,87.2 499.8,90.2 495.4,86.8 			"/>
			<path class="st1" d="M473.9,102.5c-1.6,0-2.6-1.1-2.6-2.6c0-0.7,0.3-1.3,0.7-1.7c0.9-0.9,2.6-0.9,3.4,0s0.9,2.6,0,3.4
				C475.3,102.4,474.9,102.5,473.9,102.5z"/>
			<path class="st1" d="M484.8,102.5c-0.7,0-1.3-0.3-1.7-0.7c-0.9-0.9-0.9-2.6,0-3.4c0.7-0.7,1.1-0.7,1.7-0.7s1.3,0.3,1.7,0.7
				c0.9,0.9,0.9,2.6,0,3.4C486.1,102.4,485.5,102.5,484.8,102.5z"/>
			<path class="st1" d="M495.4,102.5c-0.7,0-1.3-0.3-1.7-0.7c-0.9-1.1-0.9-2.6,0-3.4c0.9-0.9,2.6-0.9,3.4,0s0.9,2.6,0,3.4
				C497,102.4,496.1,102.8,495.4,102.5z"/>
			<path class="st1" d="M533.5,74.6c-0.7,0-1.3-0.3-1.7-0.7c-0.9-0.9-0.9-2.6,0-3.7c0.9-0.9,2.6-0.9,3.7,0c0.9,0.9,0.9,2.6,0,3.7
				C534.8,74.3,534.4,74.6,533.5,74.6z"/>
			<path class="st1" d="M533.5,107.3c-1.6,0-2.6-1.1-2.6-2.6l0,0c0-0.7,0.3-1.3,0.7-1.7c0.9-0.9,2.6-0.9,3.7,0
				c0.9,0.9,0.9,2.6,0,3.4C534.8,107.1,534.4,107.3,533.5,107.3L533.5,107.3z"/>
		</g>
	</g>
	<g>
		<path class="st3" d="M211.9,224.4l-60-119.6c-0.9-1.7-3.4-1.7-4.3,0l-8.2,16.3c-0.3,0.7-0.3,1.6,0,2.1l35,69.6
			c0.9,1.6-0.3,3.5-2.1,3.5H88.9c-1.7,0-3-2-2.1-3.5l35-69.6c0.3-0.7,0.3-1.6,0-2.1l-8.2-16.3c-0.9-1.7-3.4-1.7-4.3,0l-60,119.8
			c-0.4,0.9-1.3,1.3-2.1,1.3H16.9c-1.3,0-2.4-1.1-2.4-2.4v-10.3c0-1.3,1.1-2.4,2.4-2.4h21c0.9,0,1.7-0.6,2.1-1.3l4.3-8.5
			c0.7-1.6-0.3-3.4-2.1-3.4H28.7c-1.3,0-2.4-1.1-2.4-2.4V185c0-1.3,1.1-2.4,2.4-2.4h23.5c0.9,0,1.7-0.6,2.1-1.3l62.5-124.6
			c0.9-1.6-0.3-3.5-2.1-3.5H89.5c-1.3,0-2.4-1.1-2.4-2.4V40.7c0-1.3,1.1-2.4,2.4-2.4h25.2c1.7,0,3-2,2.1-3.5l-9.1-17.6
			c-0.6-1.1-0.1-2.7,1.1-3.3l8.9-4.4c1.1-0.6,2.6-0.1,3.3,1.1l7.4,14.9c0.9,1.7,3.4,1.7,4.3,0l7.4-14.9c0.6-1.1,2-1.7,3.1-1.1
			l9.1,4.4c1.1,0.6,1.7,2,1.1,3.3l-9.1,18.1c-0.9,1.6,0.3,3.5,2.1,3.5h25.1c1.3,0,2.4,1.1,2.4,2.4v10.1c0,1.3-1.1,2.4-2.4,2.4h-24.9
			c-1.7,0-3,2-2.1,3.5L207,181.9c0.4,0.9,1.3,1.3,2.1,1.3h23.5c1.3,0,2.4,1.1,2.4,2.4v10.1c0,1.3-1.1,2.4-2.4,2.4H219
			c-1.7,0-3,1.8-2.1,3.4l4.3,8.5c0.4,0.9,1.3,1.3,2.1,1.3h21c1.3,0,2.4,1.1,2.4,2.4v10.1c0,1.3-1.1,2.4-2.4,2.4l-30.3,0.1
			C213.2,225.8,212.4,225.3,211.9,224.4z M150,177.8l-17.4-34.7c-0.9-1.7-3.4-1.7-4.3,0l-17.4,34.7c-0.9,1.6,0.3,3.5,2.1,3.5h35
			C149.7,181.3,150.9,179.5,150,177.8z M132.9,101.2l8.1-16.3c0.3-0.7,0.3-1.6,0-2.1l-8.2-16.3c-0.9-1.7-3.4-1.7-4.3,0l-8.1,16.3
			c-0.3,0.7-0.3,1.6,0,2.1l8.2,16.3C129.5,103.1,131.9,103.1,132.9,101.2z"/>
	</g>
</g>
</svg>
